Dactyl Roman.sfdir
StartChar: !
Encoding: 33 33 0
Width: 163
InSpiro: 1
        Flags: H
        LayerCount: 2
        Back
        SplineSet
30 630 m 0
0 630 l 0
0 634 l 0
64 634 l 0
64 630 l 0
34 630 l 0
34 234 l 0
64 234 l 0
64 230 l 0
0 230 l 0
0 234 l 0
30 234 l 0
30 630 l 0
Z
32 25 m 0
33 25 35 25 36 27 c 0
38 28 38 30 39 32 c 0
39 33 38 35 36 36 c 0
35 38 33 39 32 39 c 0
30 38 28 38 27 36 c 0
25 35 25 33 25 32 c 0
24 30 25 28 27 27 c 0
28 25 30 24 32 25 c 0
Z
Spiro
30 630 v
0 630 v
0 634 v
64 634 v
64 630 v
34 630 v
34 234 v
64 234 v
64 230 v
0 230 v
0 234 v
30 234 v
32 25 c
39 32 c
32 39 c
25 32 c
0 0 z
EndSpiro
EndSplineSet
        Fore
        SplineSet
-1 600 m 0
-31 600 l 0
-31 660 l 0
91 660 l 0
91 600 l 0
61 600 l 0
61 260 l 0
91 260 l 0
91 200 l 0
-31 200 l 0
-31 260 l 0
-1 260 l 0
-1 600 l 0
Z
30 -5 m 0
39 -4 48 -1 54 5 c 0
61 11 64 20 65 30 c 0
65 39 61 48 54 54 c 0
48 61 39 65 30 65 c 0
20 64 11 61 5 54 c 0
-1 48 -4 39 -5 30 c 0
-5 20 -1 11 5 5 c 0
11 -1 20 -5 30 -5 c 0
Z
Spiro
-1 600 v
-31 600 v
-31 660 v
91 660 v
91 600 v
61 600 v
61 260 v
91 260 v
91 200 v
-31 200 v
-31 260 v
-1 260 v
30 -5 c
65 30 c
30 65 c
-5 30 c
0 0 z
EndSpiro
EndSplineSet
        EndChar
StartChar: #
Encoding: 35 35 0
Width: 463
InSpiro: 1
        Flags: H
        LayerCount: 2
        Back
        SplineSet
34 430 m 0
34 400 l 0
30 400 l 0
30 464 l 0
34 464 l 0
34 434 l 0
329 434 l 0
329 464 l 0
334 464 l 0
334 400 l 0
329 400 l 0
329 430 l 0
34 430 l 0
Z
34 230 m 0
34 200 l 0
30 200 l 0
30 264 l 0
34 264 l 0
34 234 l 0
329 234 l 0
329 264 l 0
334 264 l 0
334 200 l 0
329 200 l 0
329 230 l 0
34 230 l 0
Z
254 630 m 0
224 630 l 0
224 634 l 0
289 634 l 0
289 630 l 0
259 630 l 0
259 34 l 0
289 34 l 0
289 30 l 0
224 30 l 0
224 34 l 0
254 34 l 0
254 630 l 0
Z
104 630 m 0
74 630 l 0
74 634 l 0
139 634 l 0
139 630 l 0
109 630 l 0
109 34 l 0
139 34 l 0
139 30 l 0
74 30 l 0
74 34 l 0
104 34 l 0
104 630 l 0
Z
Spiro
34 430 v
34 400 v
30 400 v
30 464 v
34 464 v
34 434 v
329 434 v
329 464 v
334 464 v
334 400 v
329 400 v
329 430 v
34 230 v
34 200 v
30 200 v
30 264 v
34 264 v
34 234 v
329 234 v
329 264 v
334 264 v
334 200 v
329 200 v
329 230 v
254 630 v
224 630 v
224 634 v
289 634 v
289 630 v
259 630 v
259 34 v
289 34 v
289 30 v
224 30 v
224 34 v
254 34 v
104 630 v
74 630 v
74 634 v
139 634 v
139 630 v
109 630 v
109 34 v
139 34 v
139 30 v
74 30 v
74 34 v
104 34 v
0 0 z
EndSpiro
EndSplineSet
        Fore
        SplineSet
61 400 m 0
60 370 l 0
0 370 l 0
0 490 l 0
60 490 l 0
61 460 l 0
298 460 l 0
299 490 l 0
360 490 l 0
360 370 l 0
299 370 l 0
298 400 l 0
61 400 l 0
Z
61 200 m 0
60 170 l 0
0 170 l 0
0 290 l 0
60 290 l 0
61 260 l 0
298 260 l 0
299 290 l 0
360 290 l 0
360 170 l 0
299 170 l 0
298 200 l 0
61 200 l 0
Z
223 600 m 0
193 600 l 0
193 660 l 0
316 660 l 0
316 600 l 0
286 600 l 0
286 60 l 0
316 60 l 0
316 0 l 0
193 0 l 0
193 59 l 0
223 60 l 0
223 600 l 0
Z
73 600 m 0
43 600 l 0
43 660 l 0
166 660 l 0
166 600 l 0
136 600 l 0
136 60 l 0
166 60 l 0
166 0 l 0
43 0 l 0
43 59 l 0
73 60 l 0
73 600 l 0
Z
Spiro
61 400 v
60 370 v
0 370 v
0 490 v
60 490 v
61 460 v
298 460 v
299 490 v
360 490 v
360 370 v
299 370 v
298 400 v
61 200 v
60 170 v
0 170 v
0 290 v
60 290 v
61 260 v
298 260 v
299 290 v
360 290 v
360 170 v
299 170 v
298 200 v
223 600 v
193 600 v
193 660 v
316 660 v
316 600 v
286 600 v
286 60 v
316 60 v
316 0 v
193 0 v
193 59 v
223 60 v
73 600 v
43 600 v
43 660 v
166 660 v
166 600 v
136 600 v
136 60 v
166 60 v
166 0 v
43 0 v
43 59 v
73 60 v
0 0 z
EndSpiro
EndSplineSet
        EndChar
StartChar: %
Encoding: 37 37 0
Width: 463
InSpiro: 1
        Flags: H
        LayerCount: 2
        Back
        SplineSet
329 630 m 0
299 630 l 0
299 634 l 0
364 634 l 0
364 630 l 0
334 630 l 0
34 34 l 0
64 34 l 0
64 30 l 0
0 30 l 0
0 34 l 0
30 34 l 0
329 630 l 0
Z
30 510 m 0
21 521 16 535 14 549 c 0
13 563 16 578 22 590 c 0
29 603 39 614 51 621 c 0
63 629 77 633 92 633 c 0
106 632 120 628 132 621 c 0
144 613 154 602 160 590 c 0
166 577 169 563 168 549 c 0
166 535 161 521 153 510 c 0
138 490 115 479 91 479 c 0
67 479 44 490 30 510 c 0
Z
150 513 m 0
158 523 163 536 164 550 c 0
165 563 162 577 156 589 c 0
150 601 141 612 129 619 c 0
118 626 104 630 91 630 c 0
77 629 64 626 52 618 c 0
41 611 31 601 25 589 c 0
20 577 17 563 18 550 c 0
19 536 24 523 33 513 c 0
46 494 68 483 91 483 c 0
114 483 136 494 150 513 c 0
Z
333 153 m 0
341 141 346 127 348 113 c 0
349 99 346 84 340 72 c 0
333 59 323 48 311 41 c 0
299 33 285 29 271 30 c 0
256 30 242 34 230 41 c 0
218 49 208 60 202 72 c 0
196 85 193 99 194 113 c 0
196 127 201 141 210 153 c 0
224 172 247 183 271 183 c 0
295 183 318 172 333 153 c 0
Z
213 150 m 0
204 139 199 126 198 112 c 0
197 99 200 85 206 73 c 0
212 61 221 50 233 43 c 0
244 36 258 32 272 33 c 0
285 33 298 36 310 44 c 0
321 51 331 61 337 73 c 0
342 85 345 99 344 112 c 0
343 126 338 139 330 150 c 0
316 168 294 179 271 179 c 0
248 179 226 168 213 150 c 0
Z
Spiro
329 630 v
299 630 v
299 634 v
364 634 v
364 630 v
334 630 v
34 34 v
64 34 v
64 30 v
0 30 v
0 34 v
30 34 v
30 510 c
92 633 c
153 510 c
150 513 c
91 630 c
33 513 c
333 153 c
271 30 c
210 153 c
213 150 c
272 33 c
330 150 c
0 0 z
EndSpiro
EndSplineSet
        Fore
        SplineSet
298 600 m 0
268 600 l 0
268 660 l 0
391 660 l 0
391 600 l 0
361 600 l 0
61 60 l 0
91 60 l 0
91 0 l 0
-31 0 l 0
-31 59 l 0
-1 60 l 0
298 600 l 0
Z
4 491 m 0
-7 506 -14 525 -16 545 c 0
-17 564 -13 584 -4 601 c 0
4 618 17 633 34 643 c 0
51 653 70 659 90 659 c 0
109 658 128 653 144 643 c 0
161 633 174 618 183 601 c 0
191 584 195 564 194 545 c 0
192 526 186 507 175 492 c 0
155 464 122 448 89 447 c 0
56 447 23 464 4 491 c 0
Z
124 527 m 0
129 533 132 541 134 550 c 0
135 558 133 567 130 574 c 0
126 582 120 588 113 593 c 0
105 597 97 600 89 600 c 0
80 599 72 597 65 592 c 0
58 588 53 581 49 574 c 0
46 567 44 558 45 550 c 0
46 542 49 534 55 528 c 0
63 517 76 511 89 511 c 0
102 510 115 516 124 527 c 0
Z
355 168 m 0
366 152 373 133 375 113 c 0
376 94 372 74 363 57 c 0
354 40 341 25 324 15 c 0
307 5 288 0 269 0 c 0
249 0 230 5 214 15 c 0
197 25 184 40 175 57 c 0
167 74 163 94 164 113 c 0
166 132 172 151 184 167 c 0
203 194 236 210 269 211 c 0
302 211 335 194 355 168 c 0
Z
235 132 m 0
229 125 226 117 224 108 c 0
223 100 225 91 228 84 c 0
232 76 238 70 245 65 c 0
253 61 261 58 270 59 c 0
278 59 286 61 293 66 c 0
300 70 305 77 309 84 c 0
312 91 314 100 313 108 c 0
312 116 309 124 304 131 c 0
295 141 282 147 269 147 c 0
256 148 243 142 235 132 c 0
Z
Spiro
298 600 v
268 600 v
268 660 v
391 660 v
391 600 v
361 600 v
61 60 v
91 60 v
91 0 v
-31 0 v
-31 59 v
-1 60 v
4 491 c
90 659 c
175 492 c
124 527 c
89 600 c
55 528 c
355 168 c
269 0 c
184 167 c
235 132 c
270 59 c
304 131 c
0 0 z
EndSpiro
EndSplineSet
        EndChar
StartChar: &
Encoding: 38 38 0
Width: 463
InSpiro: 1
        Flags: H
        LayerCount: 2
        Back
        SplineSet
334 34 m 0
364 34 l 0
364 30 l 0
299 30 l 0
299 34 l 0
329 34 l 0
180 180 l 0
138 220 97 263 70 314 c 0
42 365 28 423 30 482 c 0
31 523 41 567 68 599 c 0
82 615 100 628 120 634 c 0
140 640 162 640 182 633 c 0
195 627 207 618 216 606 c 0
226 595 232 582 237 567 c 0
245 539 242 509 234 481 c 0
216 422 175 373 133 330 c 0
111 308 89 287 71 263 c 0
52 239 37 211 34 181 c 0
29 149 38 116 56 89 c 0
74 63 101 43 132 33 c 0
170 20 214 23 250 41 c 0
286 58 315 91 329 130 c 0
299 130 l 0
299 134 l 0
364 134 l 0
364 130 l 0
334 130 l 0
320 90 290 56 252 38 c 0
215 19 170 16 131 30 c 0
99 40 71 60 52 88 c 0
34 115 25 149 30 182 c 0
34 212 48 240 67 265 c 0
86 289 108 310 130 333 c 0
171 376 211 424 229 482 c 0
237 509 240 538 233 566 c 0
229 579 223 593 214 604 c 0
205 615 194 624 181 630 c 0
162 638 140 638 120 631 c 0
100 625 83 612 70 596 c 0
44 565 34 522 34 481 c 0
32 423 47 366 74 315 c 0
102 265 142 223 183 183 c 0
334 34 l 0
Z
Spiro
334 34 v
364 34 v
364 30 v
299 30 v
299 34 v
329 34 v
180 180 ]
30 482 c
182 633 c
234 481 c
133 330 c
34 181 c
132 33 c
329 130 v
299 130 v
299 134 v
364 134 v
364 130 v
334 130 v
131 30 c
30 182 c
130 333 c
229 482 c
181 630 c
34 481 c
183 183 [
0 0 z
EndSpiro
EndSplineSet
        Fore
        SplineSet
361 60 m 0
391 60 l 0
391 0 l 0
268 0 l 0
268 59 l 0
298 60 l 0
157 158 l 0
130 176 104 194 81 216 c 0
58 239 38 264 24 293 c 0
-4 350 -9 416 -1 480 c 0
5 529 21 580 55 617 c 0
72 635 94 650 118 658 c 0
141 665 168 665 192 657 c 0
209 650 224 639 236 625 c 0
248 612 256 595 262 578 c 0
272 543 270 505 260 471 c 0
241 408 199 354 152 309 c 0
132 289 111 271 94 250 c 0
77 228 63 203 61 176 c 0
58 150 65 125 80 104 c 0
94 83 115 67 139 58 c 0
166 47 197 45 225 52 c 0
253 60 279 77 298 100 c 0
268 100 l 0
268 160 l 0
391 160 l 0
391 100 l 0
361 100 l 0
339 57 302 23 258 5 c 0
215 -12 164 -14 120 1 c 0
82 13 48 37 26 70 c 0
3 102 -6 143 -1 183 c 0
3 216 19 247 39 274 c 0
59 301 83 325 107 350 c 0
145 390 181 434 199 488 c 0
205 508 209 530 204 552 c 0
202 562 198 572 192 581 c 0
185 590 176 597 167 602 c 0
152 608 134 607 119 601 c 0
104 595 92 584 83 571 c 0
64 544 60 511 61 479 c 0
61 425 72 370 97 322 c 0
122 275 161 236 202 201 c 0
361 60 l 0
Z
Spiro
361 60 v
391 60 v
391 0 v
268 0 v
268 59 v
298 60 v
157 158 ]
-1 480 c
192 657 c
260 471 c
152 309 c
61 176 c
139 58 c
298 100 v
268 100 v
268 160 v
391 160 v
391 100 v
361 100 v
120 1 c
-1 183 c
107 350 c
199 488 c
167 602 c
61 479 c
202 201 [
0 0 z
EndSpiro
EndSplineSet
        EndChar
StartChar: '
Encoding: 39 39 0
Width: 163
InSpiro: 1
        Flags: H
        LayerCount: 2
        Back
        SplineSet
30 630 m 0
0 630 l 0
0 634 l 0
64 634 l 0
64 630 l 0
34 630 l 0
34 484 l 0
64 484 l 0
64 480 l 0
0 480 l 0
0 484 l 0
30 484 l 0
30 630 l 0
Z
Spiro
30 630 v
0 630 v
0 634 v
64 634 v
64 630 v
34 630 v
34 484 v
64 484 v
64 480 v
0 480 v
0 484 v
30 484 v
0 0 z
EndSpiro
EndSplineSet
        Fore
        SplineSet
-1 600 m 0
-31 600 l 0
-31 660 l 0
91 660 l 0
91 600 l 0
61 600 l 0
61 510 l 0
91 510 l 0
91 450 l 0
-31 450 l 0
-31 510 l 0
-1 510 l 0
-1 600 l 0
Z
Spiro
-1 600 v
-31 600 v
-31 660 v
91 660 v
91 600 v
61 600 v
61 510 v
91 510 v
91 450 v
-31 450 v
-31 510 v
-1 510 v
0 0 z
EndSpiro
EndSplineSet
        EndChar
StartChar: )
Encoding: 41 41 0
Width: 313
InSpiro: 1
        Flags: H
        LayerCount: 2
        Back
        SplineSet
34 632 m 0
34 602 l 0
30 602 l 0
30 666 l 0
34 666 l 0
34 636 l 0
126 564 184 449 184 332 c 0
184 214 126 99 34 28 c 0
34 -2 l 0
30 -2 l 0
30 62 l 0
34 62 l 0
34 32 l 0
124 103 179 217 179 332 c 0
179 446 124 560 34 632 c 0
Z
Spiro
34 632 v
34 602 v
30 602 v
30 666 v
34 666 v
34 636 v
184 332 c
34 28 v
34 -2 v
30 -2 v
30 62 v
34 62 v
34 32 v
179 332 c
0 0 z
EndSpiro
EndSplineSet
        Fore
        SplineSet
61 630 m 0
60 600 l 0
0 600 l 0
0 720 l 0
60 720 l 0
61 690 l 0
155 596 211 463 211 330 c 0
211 196 155 63 61 -30 c 0
60 -60 l 0
0 -59 l 0
0 59 l 0
60 59 l 0
61 30 l 0
117 119 148 224 148 330 c 0
148 435 117 540 61 630 c 0
Z
Spiro
61 630 v
60 600 v
0 600 v
0 720 v
60 720 v
61 690 v
211 330 c
61 -30 v
60 -60 v
0 -59 v
0 59 v
60 59 v
61 30 v
148 330 c
0 0 z
EndSpiro
EndSplineSet
        EndChar
StartChar: *
Encoding: 42 42 0
Width: 403
InSpiro: 1
        Flags: H
        LayerCount: 2
        Back
        SplineSet
34 430 m 0
34 400 l 0
30 400 l 0
30 464 l 0
34 464 l 0
34 434 l 0
269 434 l 0
269 464 l 0
274 464 l 0
274 400 l 0
269 400 l 0
269 430 l 0
34 430 l 0
Z
89 559 m 0
59 559 l 0
59 563 l 0
124 563 l 0
124 559 l 0
94 559 l 0
226 305 l 0
256 305 l 0
256 301 l 0
191 301 l 0
191 305 l 0
221 305 l 0
89 559 l 0
Z
221 559 m 0
191 559 l 0
191 563 l 0
256 563 l 0
256 559 l 0
226 559 l 0
94 305 l 0
124 305 l 0
124 301 l 0
59 301 l 0
59 305 l 0
89 305 l 0
221 559 l 0
Z
Spiro
34 430 v
34 400 v
30 400 v
30 464 v
34 464 v
34 434 v
269 434 v
269 464 v
274 464 v
274 400 v
269 400 v
269 430 v
89 559 v
59 559 v
59 563 v
124 563 v
124 559 v
94 559 v
226 305 v
256 305 v
256 301 v
191 301 v
191 305 v
221 305 v
221 559 v
191 559 v
191 563 v
256 563 v
256 559 v
226 559 v
94 305 v
124 305 v
124 301 v
59 301 v
59 305 v
89 305 v
0 0 z
EndSpiro
EndSplineSet
        Fore
        SplineSet
61 400 m 0
60 370 l 0
0 370 l 0
0 490 l 0
60 490 l 0
61 460 l 0
238 460 l 0
239 490 l 0
300 490 l 0
300 370 l 0
239 370 l 0
238 400 l 0
61 400 l 0
Z
58 529 m 0
28 529 l 0
28 589 l 0
151 589 l 0
151 529 l 0
121 529 l 0
253 331 l 0
283 331 l 0
283 271 l 0
160 271 l 0
160 331 l 0
190 331 l 0
58 529 l 0
Z
190 529 m 0
160 529 l 0
160 589 l 0
283 589 l 0
283 529 l 0
253 529 l 0
121 331 l 0
151 331 l 0
151 271 l 0
28 271 l 0
28 331 l 0
58 331 l 0
190 529 l 0
Z
Spiro
61 400 v
60 370 v
0 370 v
0 490 v
60 490 v
61 460 v
238 460 v
239 490 v
300 490 v
300 370 v
239 370 v
238 400 v
58 529 v
28 529 v
28 589 v
151 589 v
151 529 v
121 529 v
253 331 v
283 331 v
283 271 v
160 271 v
160 331 v
190 331 v
190 529 v
160 529 v
160 589 v
283 589 v
283 529 v
253 529 v
121 331 v
151 331 v
151 271 v
28 271 v
28 331 v
58 331 v
0 0 z
EndSpiro
EndSplineSet
        EndChar
StartChar: /
Encoding: 47 47 0
Width: 596
InSpiro: 1
        Flags: H
        LayerCount: 2
        Back
        SplineSet
403 632 m 0
373 632 l 0
373 636 l 0
438 636 l 0
438 632 l 0
408 632 l 0
108 32 l 0
138 32 l 0
138 28 l 0
73 28 l 0
73 32 l 0
103 32 l 0
403 632 l 0
Z
Spiro
403 632 v
373 632 v
373 636 v
438 636 v
438 632 v
408 632 v
108 32 v
138 32 v
138 28 v
73 28 v
73 32 v
103 32 v
0 0 z
EndSpiro
EndSplineSet
        Fore
        SplineSet
431 630 m 0
401 630 l 0
401 690 l 0
524 690 l 0
524 630 l 0
494 630 l 0
194 30 l 0
224 29 l 0
224 -29 l 0
101 -30 l 0
101 29 l 0
131 30 l 0
431 630 l 0
Z
Spiro
431 630 v
401 630 v
401 690 v
524 690 v
524 630 v
494 630 v
194 30 v
224 29 v
224 -29 v
101 -30 v
101 29 v
131 30 v
0 0 z
EndSpiro
EndSplineSet
        EndChar
StartChar: 2
Encoding: 50 50 0
Width: 463
InSpiro: 1
        Flags: H
        LayerCount: 2
        Back
        SplineSet
34 534 m 0
64 534 l 0
64 530 l 0
0 530 l 0
0 534 l 0
30 534 l 0
41 564 62 590 89 608 c 0
116 625 149 634 182 633 c 0
220 630 258 613 285 585 c 0
313 558 330 520 334 482 c 0
339 426 317 371 287 325 c 0
258 278 220 237 183 196 c 0
36 33 l 0
329 34 l 0
329 64 l 0
334 64 l 0
334 0 l 0
329 0 l 0
329 30 l 0
30 30 l 0
30 30 l 0
180 199 l 0
216 239 253 280 282 326 c 0
312 372 333 426 329 481 c 0
325 519 309 556 282 583 c 0
256 610 219 627 181 630 c 0
149 631 118 623 91 606 c 0
65 588 45 563 34 534 c 0
Z
Spiro
34 534 v
64 534 v
64 530 v
0 530 v
0 534 v
30 534 v
182 633 c
334 482 c
183 196 [
36 33 v
329 34 v
329 64 v
334 64 v
334 0 v
329 0 v
329 30 v
30 30 v
30 30 v
180 199 ]
329 481 c
181 630 c
0 0 z
EndSpiro
EndSplineSet
        Fore
        SplineSet
61 560 m 0
91 560 l 0
91 500 l 0
-31 500 l 0
-31 560 l 0
-1 560 l 0
16 591 43 618 75 636 c 0
107 653 144 661 181 659 c 0
226 655 270 635 303 603 c 0
336 571 356 527 361 482 c 0
366 422 345 364 314 313 c 0
283 263 242 218 203 175 c 0
98 59 l 0
298 60 l 0
299 90 l 0
360 90 l 0
360 -29 l 0
299 -29 l 0
298 0 l 0
-1 0 l 0
-1 0 l 0
156 216 l 0
185 256 217 296 246 337 c 0
260 358 274 379 284 403 c 0
293 426 299 451 298 477 c 0
295 508 282 537 260 560 c 0
238 582 208 596 178 600 c 0
135 605 91 589 61 560 c 0
Z
Spiro
61 560 v
91 560 v
91 500 v
-31 500 v
-31 560 v
-1 560 v
181 659 c
361 482 c
203 175 [
98 59 v
298 60 v
299 90 v
360 90 v
360 -29 v
299 -29 v
298 0 v
-1 0 v
-1 0 v
156 216 ]
298 477 c
178 600 c
0 0 z
EndSpiro
EndSplineSet
        EndChar
StartChar: 4
Encoding: 52 52 0
Width: 463
InSpiro: 1
        Flags: H
        LayerCount: 2
        Back
        SplineSet
274 34 m 0
304 34 l 0
304 30 l 0
239 30 l 0
239 34 l 0
269 34 l 0
269 624 l 0
35 184 l 0
329 184 l 0
329 214 l 0
334 214 l 0
334 150 l 0
329 150 l 0
329 180 l 0
30 180 l 0
30 180 l 0
269 634 l 0
274 634 l 0
274 34 l 0
Z
Spiro
274 34 v
304 34 v
304 30 v
239 30 v
239 34 v
269 34 v
269 624 v
35 184 v
329 184 v
329 214 v
334 214 v
334 150 v
329 150 v
329 180 v
30 180 v
30 180 v
269 634 v
274 634 v
0 0 z
EndSpiro
EndSplineSet
        Fore
        SplineSet
301 60 m 0
331 60 l 0
331 0 l 0
208 0 l 0
208 59 l 0
238 60 l 0
239 510 l 0
81 210 l 0
298 210 l 0
299 240 l 0
360 240 l 0
360 120 l 0
299 120 l 0
298 150 l 0
-1 150 l 0
-1 150 l 0
238 660 l 0
301 660 l 0
301 60 l 0
Z
Spiro
301 60 v
331 60 v
331 0 v
208 0 v
208 59 v
238 60 v
239 510 v
81 210 v
298 210 v
299 240 v
360 240 v
360 120 v
299 120 v
298 150 v
-1 150 v
-1 150 v
238 660 v
301 660 v
0 0 z
EndSpiro
EndSplineSet
        EndChar
StartChar: 5
Encoding: 53 53 0
Width: 463
InSpiro: 1
        Flags: H
        LayerCount: 2
        Back
        SplineSet
329 634 m 0
329 664 l 0
334 664 l 0
334 600 l 0
329 600 l 0
329 630 l 0
34 630 l 0
34 334 l 0
64 334 l 0
64 330 l 0
0 330 l 0
0 334 l 0
30 334 l 0
30 634 l 0
30 634 l 0
329 634 l 0
Z
34 334 m 0
64 334 l 0
64 330 l 0
0 330 l 0
0 334 l 0
30 334 l 0
39 365 60 392 88 410 c 0
115 428 149 436 182 433 c 0
227 427 269 399 295 362 c 0
321 324 333 277 334 232 c 0
334 185 322 138 296 101 c 0
269 63 227 35 182 30 c 0
149 26 115 34 87 52 c 0
60 70 39 98 30 130 c 0
0 130 l 0
0 134 l 0
64 134 l 0
64 130 l 0
34 130 l 0
43 99 63 72 89 54 c 0
116 37 149 29 181 33 c 0
225 38 266 65 292 102 c 0
317 140 328 185 329 231 c 0
329 276 317 322 292 359 c 0
266 397 225 424 181 430 c 0
149 433 116 425 90 408 c 0
63 391 43 364 34 334 c 0
Z
Spiro
329 634 v
329 664 v
334 664 v
334 600 v
329 600 v
329 630 v
34 630 v
34 334 v
64 334 v
64 330 v
0 330 v
0 334 v
30 334 v
30 634 v
30 634 v
34 334 v
64 334 v
64 330 v
0 330 v
0 334 v
30 334 v
182 433 c
334 232 c
182 30 c
30 130 v
0 130 v
0 134 v
64 134 v
64 130 v
34 130 v
181 33 c
329 231 c
181 430 c
0 0 z
EndSpiro
EndSplineSet
        Fore
        SplineSet
298 660 m 0
299 690 l 0
360 690 l 0
360 570 l 0
299 570 l 0
298 600 l 0
61 600 l 0
61 360 l 0
91 360 l 0
91 300 l 0
-31 300 l 0
-31 360 l 0
-1 360 l 0
-1 660 l 0
-1 660 l 0
298 660 l 0
Z
61 360 m 0
91 360 l 0
91 300 l 0
-31 300 l 0
-31 360 l 0
-1 360 l 0
15 393 42 421 74 439 c 0
107 456 146 463 183 459 c 0
235 451 283 421 314 378 c 0
345 336 360 282 361 230 c 0
361 177 346 123 314 80 c 0
283 38 235 6 183 0 c 0
146 -4 107 2 74 20 c 0
41 37 15 66 -1 100 c 0
-31 100 l 0
-31 160 l 0
91 160 l 0
91 100 l 0
61 100 l 0
74 83 93 71 113 64 c 0
133 57 155 55 176 59 c 0
213 65 246 89 267 121 c 0
288 152 297 191 298 229 c 0
298 267 288 305 267 337 c 0
246 369 213 393 176 400 c 0
155 403 133 402 113 395 c 0
93 388 75 375 61 360 c 0
Z
Spiro
298 660 v
299 690 v
360 690 v
360 570 v
299 570 v
298 600 v
61 600 v
61 360 v
91 360 v
91 300 v
-31 300 v
-31 360 v
-1 360 v
-1 660 v
-1 660 v
61 360 v
91 360 v
91 300 v
-31 300 v
-31 360 v
-1 360 v
183 459 c
361 230 c
183 0 c
-1 100 v
-31 100 v
-31 160 v
91 160 v
91 100 v
61 100 v
176 59 c
298 229 c
176 400 c
0 0 z
EndSpiro
EndSplineSet
        EndChar
StartChar: 7
Encoding: 55 55 0
Width: 463
InSpiro: 1
        Flags: H
        LayerCount: 2
        Back
        SplineSet
34 630 m 0
34 600 l 0
30 600 l 0
30 664 l 0
34 664 l 0
34 634 l 0
334 634 l 0
334 634 l 0
184 34 l 0
214 34 l 0
214 30 l 0
149 30 l 0
149 34 l 0
179 34 l 0
329 630 l 0
34 630 l 0
Z
Spiro
34 630 v
34 600 v
30 600 v
30 664 v
34 664 v
34 634 v
334 634 v
334 634 v
184 34 v
214 34 v
214 30 v
149 30 v
149 34 v
179 34 v
329 630 v
0 0 z
EndSpiro
EndSplineSet
        Fore
        SplineSet
61 600 m 0
60 570 l 0
0 570 l 0
0 690 l 0
60 690 l 0
61 660 l 0
361 660 l 0
361 660 l 0
211 60 l 0
241 60 l 0
241 0 l 0
118 0 l 0
118 59 l 0
148 60 l 0
290 600 l 0
61 600 l 0
Z
Spiro
61 600 v
60 570 v
0 570 v
0 690 v
60 690 v
61 660 v
361 660 v
361 660 v
211 60 v
241 60 v
241 0 v
118 0 v
118 59 v
148 60 v
290 600 v
0 0 z
EndSpiro
EndSplineSet
        EndChar
StartChar: 9
Encoding: 57 57 0
Width: 463
InSpiro: 1
        Flags: H
        LayerCount: 2
        Back
        SplineSet
184 34 m 0
214 34 l 0
214 30 l 0
149 30 l 0
149 34 l 0
179 34 l 0
256 116 309 220 329 332 c 0
337 381 340 432 329 481 c 0
320 517 304 552 279 580 c 0
253 607 218 627 181 630 c 0
141 632 102 616 74 588 c 0
47 560 32 521 34 482 c 0
35 443 51 405 78 378 c 0
105 350 143 334 182 333 c 0
213 331 244 340 270 358 c 0
297 375 317 400 329 430 c 0
299 430 l 0
299 434 l 0
364 434 l 0
364 430 l 0
334 430 l 0
322 399 300 373 273 355 c 0
246 337 213 328 181 330 c 0
141 331 103 348 75 375 c 0
48 403 31 441 30 481 c 0
28 521 43 562 72 591 c 0
100 619 141 635 182 633 c 0
220 630 256 610 282 582 c 0
308 555 325 519 334 482 c 0
345 432 343 380 334 331 c 0
313 220 261 115 184 34 c 0
Z
Spiro
184 34 v
214 34 v
214 30 v
149 30 v
149 34 v
179 34 v
329 332 c
329 481 c
181 630 c
34 482 c
182 333 c
329 430 v
299 430 v
299 434 v
364 434 v
364 430 v
334 430 v
181 330 c
30 481 c
182 633 c
334 482 c
334 331 c
0 0 z
EndSpiro
EndSplineSet
        Fore
        SplineSet
211 60 m 0
241 60 l 0
241 0 l 0
118 0 l 0
118 59 l 0
148 60 l 0
224 133 278 230 298 335 c 0
306 380 309 427 299 473 c 0
292 503 279 533 258 557 c 0
237 580 208 597 177 600 c 0
145 602 113 589 92 566 c 0
70 543 59 511 61 480 c 0
62 449 76 419 98 397 c 0
120 376 149 362 180 359 c 0
222 354 267 369 298 400 c 0
268 400 l 0
268 460 l 0
391 460 l 0
391 400 l 0
361 400 l 0
343 368 316 341 284 324 c 0
252 306 215 298 179 300 c 0
132 302 87 322 54 354 c 0
21 387 0 432 -1 479 c 0
-2 527 15 576 50 610 c 0
84 644 133 663 182 659 c 0
226 655 267 633 298 601 c 0
329 569 349 528 360 486 c 0
372 433 371 377 361 324 c 0
340 223 287 128 211 60 c 0
Z
Spiro
211 60 v
241 60 v
241 0 v
118 0 v
118 59 v
148 60 v
298 335 c
299 473 c
177 600 c
61 480 c
180 359 c
298 400 v
268 400 v
268 460 v
391 460 v
391 400 v
361 400 v
179 300 c
-1 479 c
182 659 c
360 486 c
361 324 c
0 0 z
EndSpiro
EndSplineSet
        EndChar
StartChar: B
Encoding: 66 66 0
Width: 463
InSpiro: 1
        Flags: H
        LayerCount: 2
        Back
        SplineSet
34 34 m 0
64 34 l 0
64 30 l 0
0 30 l 0
0 34 l 0
30 34 l 0
30 634 l 0
30 634 l 0
182 634 l 0
202 634 223 633 243 628 c 0
263 622 282 612 296 597 c 0
311 582 321 563 326 543 c 0
332 523 334 502 334 482 c 0
334 461 332 440 326 420 c 0
321 400 311 381 296 366 c 0
282 351 263 341 243 335 c 0
223 330 202 329 182 330 c 0
34 330 l 0
34 300 l 0
30 300 l 0
30 364 l 0
34 364 l 0
34 334 l 0
182 334 l 0
202 334 222 334 241 339 c 0
261 345 279 355 293 369 c 0
307 384 316 402 322 422 c 0
327 441 329 461 329 482 c 0
329 502 327 522 322 541 c 0
316 561 307 579 293 594 c 0
279 608 261 618 241 624 c 0
222 629 202 630 182 630 c 0
34 630 l 0
34 34 l 0
Z
34 330 m 0
34 300 l 0
30 300 l 0
30 364 l 0
34 364 l 0
34 334 l 0
182 334 l 0
202 334 223 333 243 328 c 0
263 322 282 312 296 297 c 0
311 282 321 263 326 243 c 0
332 223 334 202 334 182 c 0
334 161 332 140 326 120 c 0
321 100 311 81 296 66 c 0
282 51 263 41 243 35 c 0
223 30 202 29 182 30 c 0
34 30 l 0
34 0 l 0
30 0 l 0
30 64 l 0
34 64 l 0
34 34 l 0
182 34 l 0
202 34 222 34 241 39 c 0
261 45 279 55 293 69 c 0
307 84 316 102 322 122 c 0
327 141 329 161 329 182 c 0
329 202 327 222 322 241 c 0
316 261 307 279 293 294 c 0
279 308 261 318 241 324 c 0
222 329 202 330 182 330 c 0
34 330 l 0
Z
Spiro
34 34 v
64 34 v
64 30 v
0 30 v
0 34 v
30 34 v
30 634 v
30 634 v
182 634 ]
334 482 c
182 330 [
34 330 v
34 300 v
30 300 v
30 364 v
34 364 v
34 334 v
182 334 ]
329 482 c
182 630 [
34 630 v
34 330 v
34 300 v
30 300 v
30 364 v
34 364 v
34 334 v
182 334 ]
334 182 c
182 30 [
34 30 v
34 0 v
30 0 v
30 64 v
34 64 v
34 34 v
182 34 ]
329 182 c
182 330 [
0 0 z
EndSpiro
EndSplineSet
        Fore
        SplineSet
61 60 m 0
91 60 l 0
91 0 l 0
-31 0 l 0
-31 59 l 0
-1 60 l 0
-1 660 l 0
-1 660 l 0
180 660 l 0
204 660 229 659 253 653 c 0
277 646 299 634 316 616 c 0
333 599 345 576 352 553 c 0
359 529 361 504 361 480 c 0
361 455 359 430 352 406 c 0
345 383 333 360 316 343 c 0
299 325 277 313 253 306 c 0
229 300 204 299 180 300 c 0
61 300 l 0
60 270 l 0
0 270 l 0
0 390 l 0
60 390 l 0
61 360 l 0
180 360 l 0
196 360 212 360 228 364 c 0
244 369 258 377 269 389 c 0
281 401 288 415 292 431 c 0
297 447 298 463 298 480 c 0
298 496 297 512 292 528 c 0
288 544 280 558 269 570 c 0
258 582 244 590 228 595 c 0
212 599 196 600 180 600 c 0
61 600 l 0
61 60 l 0
Z
61 300 m 0
60 270 l 0
0 270 l 0
0 390 l 0
60 390 l 0
61 360 l 0
180 360 l 0
204 360 229 359 253 353 c 0
277 346 299 334 316 316 c 0
333 299 345 276 352 253 c 0
359 229 361 204 361 180 c 0
361 155 359 130 352 106 c 0
345 83 333 60 316 43 c 0
299 25 277 13 253 6 c 0
229 0 204 0 180 0 c 0
61 0 l 0
60 -30 l 0
0 -29 l 0
0 90 l 0
60 90 l 0
61 60 l 0
180 60 l 0
196 59 212 60 228 64 c 0
244 69 258 77 269 89 c 0
281 101 288 115 292 131 c 0
297 147 298 163 298 180 c 0
298 196 297 212 292 228 c 0
288 244 280 258 269 270 c 0
258 282 244 290 228 295 c 0
212 299 196 300 180 300 c 0
61 300 l 0
Z
Spiro
61 60 v
91 60 v
91 0 v
-31 0 v
-31 59 v
-1 60 v
-1 660 v
-1 660 v
180 660 ]
361 480 c
180 300 [
61 300 v
60 270 v
0 270 v
0 390 v
60 390 v
61 360 v
180 360 ]
298 480 c
180 600 [
61 600 v
61 300 v
60 270 v
0 270 v
0 390 v
60 390 v
61 360 v
180 360 ]
361 180 c
180 0 [
61 0 v
60 -30 v
0 -29 v
0 90 v
60 90 v
61 60 v
180 60 ]
298 180 c
180 300 [
0 0 z
EndSpiro
EndSplineSet
        EndChar
StartChar: C
Encoding: 67 67 0
Width: 463
InSpiro: 1
        Flags: H
        LayerCount: 2
        Back
        SplineSet
334 534 m 0
364 534 l 0
364 530 l 0
299 530 l 0
299 534 l 0
329 534 l 0
321 565 301 593 274 610 c 0
247 628 213 635 182 630 c 0
152 624 124 609 102 588 c 0
81 566 65 539 55 511 c 0
34 454 34 392 34 332 c 0
33 271 34 208 54 151 c 0
65 123 81 96 102 75 c 0
124 53 152 37 182 33 c 0
213 27 247 34 274 52 c 0
301 70 321 98 329 130 c 0
299 130 l 0
299 134 l 0
364 134 l 0
364 130 l 0
334 130 l 0
326 97 305 68 277 49 c 0
249 31 214 24 181 30 c 0
150 35 122 51 100 72 c 0
79 94 63 121 52 150 c 0
30 207 29 270 30 332 c 0
30 393 31 455 52 513 c 0
63 541 79 568 101 590 c 0
123 611 150 627 181 633 c 0
213 638 248 631 276 613 c 0
305 595 325 566 334 534 c 0
Z
Spiro
334 534 v
364 534 v
364 530 v
299 530 v
299 534 v
329 534 v
182 630 c
34 332 c
182 33 c
329 130 v
299 130 v
299 134 v
364 134 v
364 130 v
334 130 v
181 30 c
30 332 c
181 633 c
0 0 z
EndSpiro
EndSplineSet
        Fore
        SplineSet
361 560 m 0
391 560 l 0
391 500 l 0
268 500 l 0
268 560 l 0
298 560 l 0
284 576 266 588 247 595 c 0
227 602 205 604 185 600 c 0
158 594 134 579 116 559 c 0
98 539 85 515 76 490 c 0
60 438 61 383 61 330 c 0
60 275 59 220 76 169 c 0
84 143 97 119 116 99 c 0
134 79 158 64 185 59 c 0
205 54 227 56 247 63 c 0
267 70 284 83 298 100 c 0
268 100 l 0
268 160 l 0
391 160 l 0
391 100 l 0
361 100 l 0
346 64 319 33 285 15 c 0
251 -2 211 -8 174 0 c 0
140 7 110 24 86 47 c 0
61 71 42 100 29 131 c 0
3 193 -1 262 -1 330 c 0
0 397 3 466 30 528 c 0
43 559 61 588 86 611 c 0
110 634 141 651 174 659 c 0
211 667 251 661 285 643 c 0
319 625 346 595 361 560 c 0
Z
Spiro
361 560 v
391 560 v
391 500 v
268 500 v
268 560 v
298 560 v
185 600 c
61 330 c
185 59 c
298 100 v
268 100 v
268 160 v
391 160 v
391 100 v
361 100 v
174 0 c
-1 330 c
174 659 c
0 0 z
EndSpiro
EndSplineSet
        EndChar
StartChar: D
Encoding: 68 68 0
Width: 463
InSpiro: 1
        Flags: H
        LayerCount: 2
        Back
        SplineSet
30 30 m 0
30 30 l 0
30 634 l 0
30 634 l 0
182 634 l 0
202 634 224 633 244 628 c 0
264 623 283 613 298 598 c 0
313 583 323 564 328 544 c 0
333 524 334 502 334 482 c 0
334 182 l 0
334 161 333 139 328 119 c 0
323 99 313 80 298 65 c 0
283 50 264 40 244 35 c 0
224 30 202 29 182 30 c 0
30 30 l 0
Z
182 34 m 0
202 34 222 34 242 39 c 0
262 44 280 54 295 68 c 0
309 83 319 101 323 121 c 0
328 141 329 161 329 182 c 0
329 482 l 0
329 502 328 522 323 542 c 0
318 562 309 581 295 595 c 0
280 609 262 619 242 624 c 0
222 629 202 630 182 630 c 0
34 630 l 0
34 34 l 0
182 34 l 0
Z
Spiro
30 30 v
30 30 v
30 634 v
30 634 v
182 634 ]
334 482 [
334 182 ]
182 30 [
182 34 ]
329 182 [
329 482 ]
182 630 [
34 630 v
34 34 v
0 0 z
EndSpiro
EndSplineSet
        Fore
        SplineSet
-1 0 m 0
-1 0 l 0
-1 660 l 0
-1 660 l 0
180 660 l 0
204 660 229 659 254 653 c 0
278 647 301 635 318 618 c 0
336 600 348 578 354 554 c 0
360 529 361 504 361 480 c 0
361 180 l 0
361 155 360 130 354 105 c 0
348 81 336 59 318 41 c 0
301 24 278 12 254 6 c 0
229 0 204 0 180 0 c 0
-1 0 l 0
Z
180 60 m 0
196 60 212 60 228 64 c 0
244 68 259 76 271 88 c 0
282 100 290 115 293 131 c 0
297 147 298 163 298 180 c 0
298 480 l 0
298 496 297 512 293 528 c 0
290 544 282 559 271 571 c 0
259 583 244 591 228 595 c 0
212 599 196 600 180 600 c 0
61 600 l 0
61 60 l 0
180 60 l 0
Z
Spiro
-1 0 v
-1 0 v
-1 660 v
-1 660 v
180 660 ]
361 480 [
361 180 ]
180 0 [
180 60 ]
298 180 [
298 480 ]
180 600 [
61 600 v
61 60 v
0 0 z
EndSpiro
EndSplineSet
        EndChar
StartChar: E
Encoding: 69 69 0
Width: 463
InSpiro: 1
        Flags: H
        LayerCount: 2
        Back
        SplineSet
329 634 m 0
329 664 l 0
334 664 l 0
334 600 l 0
329 600 l 0
329 630 l 0
34 630 l 0
34 34 l 0
329 34 l 0
329 64 l 0
334 64 l 0
334 0 l 0
329 0 l 0
329 30 l 0
30 30 l 0
30 30 l 0
30 634 l 0
30 634 l 0
329 634 l 0
Z
34 330 m 0
34 300 l 0
30 300 l 0
30 364 l 0
34 364 l 0
34 334 l 0
329 334 l 0
329 364 l 0
334 364 l 0
334 300 l 0
329 300 l 0
329 330 l 0
34 330 l 0
Z
Spiro
329 634 v
329 664 v
334 664 v
334 600 v
329 600 v
329 630 v
34 630 v
34 34 v
329 34 v
329 64 v
334 64 v
334 0 v
329 0 v
329 30 v
30 30 v
30 30 v
30 634 v
30 634 v
34 330 v
34 300 v
30 300 v
30 364 v
34 364 v
34 334 v
329 334 v
329 364 v
334 364 v
334 300 v
329 300 v
329 330 v
0 0 z
EndSpiro
EndSplineSet
        Fore
        SplineSet
298 660 m 0
299 690 l 0
360 690 l 0
360 570 l 0
299 570 l 0
298 600 l 0
61 600 l 0
61 60 l 0
298 60 l 0
299 90 l 0
360 90 l 0
360 -29 l 0
299 -29 l 0
298 0 l 0
-1 0 l 0
-1 0 l 0
-1 660 l 0
-1 660 l 0
298 660 l 0
Z
61 300 m 0
60 270 l 0
0 270 l 0
0 390 l 0
60 390 l 0
61 360 l 0
298 360 l 0
299 390 l 0
360 390 l 0
360 270 l 0
299 270 l 0
298 300 l 0
61 300 l 0
Z
Spiro
298 660 v
299 690 v
360 690 v
360 570 v
299 570 v
298 600 v
61 600 v
61 60 v
298 60 v
299 90 v
360 90 v
360 -29 v
299 -29 v
298 0 v
-1 0 v
-1 0 v
-1 660 v
-1 660 v
61 300 v
60 270 v
0 270 v
0 390 v
60 390 v
61 360 v
298 360 v
299 390 v
360 390 v
360 270 v
299 270 v
298 300 v
0 0 z
EndSpiro
EndSplineSet
        EndChar
StartChar: I
Encoding: 73 73 0
Width: 163
InSpiro: 1
        Flags: H
        LayerCount: 2
        Back
        SplineSet
30 630 m 0
0 630 l 0
0 634 l 0
64 634 l 0
64 630 l 0
34 630 l 0
34 34 l 0
64 34 l 0
64 30 l 0
0 30 l 0
0 34 l 0
30 34 l 0
30 630 l 0
Z
Spiro
30 630 v
0 630 v
0 634 v
64 634 v
64 630 v
34 630 v
34 34 v
64 34 v
64 30 v
0 30 v
0 34 v
30 34 v
0 0 z
EndSpiro
EndSplineSet
        Fore
        SplineSet
-1 600 m 0
-31 600 l 0
-31 660 l 0
91 660 l 0
91 600 l 0
61 600 l 0
61 60 l 0
91 60 l 0
91 0 l 0
-31 0 l 0
-31 59 l 0
-1 60 l 0
-1 600 l 0
Z
Spiro
-1 600 v
-31 600 v
-31 660 v
91 660 v
91 600 v
61 600 v
61 60 v
91 60 v
91 0 v
-31 0 v
-31 59 v
-1 60 v
0 0 z
EndSpiro
EndSplineSet
        EndChar
StartChar: J
Encoding: 74 74 0
Width: 463
InSpiro: 1
        Flags: H
        LayerCount: 2
        Back
        SplineSet
34 630 m 0
34 600 l 0
30 600 l 0
30 664 l 0
34 664 l 0
34 634 l 0
334 634 l 0
334 634 l 0
334 332 l 0
333 270 333 207 311 149 c 0
300 120 284 93 262 72 c 0
240 50 212 35 182 30 c 0
149 24 114 31 86 50 c 0
58 68 38 97 30 130 c 0
0 130 l 0
0 134 l 0
64 134 l 0
64 130 l 0
34 130 l 0
41 98 61 70 88 52 c 0
115 34 149 27 181 33 c 0
210 37 238 53 260 75 c 0
281 96 297 123 307 151 c 0
328 208 328 271 329 332 c 0
329 630 l 0
34 630 l 0
Z
Spiro
34 630 v
34 600 v
30 600 v
30 664 v
34 664 v
34 634 v
334 634 v
334 634 v
334 332 ]
182 30 c
30 130 v
0 130 v
0 134 v
64 134 v
64 130 v
34 130 v
181 33 c
329 332 [
329 630 v
0 0 z
EndSpiro
EndSplineSet
        Fore
        SplineSet
61 600 m 0
60 570 l 0
0 570 l 0
0 690 l 0
60 690 l 0
61 660 l 0
361 660 l 0
361 660 l 0
361 330 l 0
360 261 359 191 332 128 c 0
319 97 300 68 275 45 c 0
249 22 218 6 185 0 c 0
147 -6 107 0 74 17 c 0
40 35 13 64 -1 100 c 0
-31 100 l 0
-31 160 l 0
91 160 l 0
91 100 l 0
61 100 l 0
73 83 91 70 111 63 c 0
131 55 153 54 174 59 c 0
200 64 224 79 242 99 c 0
260 119 273 144 281 169 c 0
298 221 297 276 298 330 c 0
298 600 l 0
61 600 l 0
Z
Spiro
61 600 v
60 570 v
0 570 v
0 690 v
60 690 v
61 660 v
361 660 v
361 660 v
361 330 ]
185 0 c
-1 100 v
-31 100 v
-31 160 v
91 160 v
91 100 v
61 100 v
174 59 c
298 330 [
298 600 v
0 0 z
EndSpiro
EndSplineSet
        EndChar
StartChar: K
Encoding: 75 75 0
Width: 463
InSpiro: 1
        Flags: H
        LayerCount: 2
        Back
        SplineSet
329 630 m 0
299 630 l 0
299 634 l 0
364 634 l 0
364 630 l 0
334 630 l 0
34 331 l 0
34 34 l 0
64 34 l 0
64 30 l 0
0 30 l 0
0 34 l 0
30 34 l 0
30 334 l 0
30 334 l 0
329 630 l 0
Z
30 630 m 0
0 630 l 0
0 634 l 0
64 634 l 0
64 630 l 0
34 630 l 0
34 332 l 0
334 34 l 0
364 34 l 0
364 30 l 0
299 30 l 0
299 34 l 0
329 34 l 0
30 330 l 0
30 330 l 0
30 630 l 0
Z
Spiro
329 630 v
299 630 v
299 634 v
364 634 v
364 630 v
334 630 v
34 331 v
34 34 v
64 34 v
64 30 v
0 30 v
0 34 v
30 34 v
30 334 v
30 334 v
30 630 v
0 630 v
0 634 v
64 634 v
64 630 v
34 630 v
34 332 v
334 34 v
364 34 v
364 30 v
299 30 v
299 34 v
329 34 v
30 330 v
30 330 v
0 0 z
EndSpiro
EndSplineSet
        Fore
        SplineSet
298 600 m 0
268 600 l 0
268 660 l 0
391 660 l 0
391 600 l 0
361 600 l 0
61 317 l 0
61 60 l 0
91 60 l 0
91 0 l 0
-31 0 l 0
-31 59 l 0
-1 60 l 0
-1 360 l 0
-1 360 l 0
298 600 l 0
Z
-1 600 m 0
-31 600 l 0
-31 660 l 0
91 660 l 0
91 600 l 0
61 600 l 0
61 342 l 0
361 60 l 0
391 60 l 0
391 0 l 0
268 0 l 0
268 59 l 0
298 60 l 0
-1 300 l 0
-1 300 l 0
-1 600 l 0
Z
Spiro
298 600 v
268 600 v
268 660 v
391 660 v
391 600 v
361 600 v
61 317 v
61 60 v
91 60 v
91 0 v
-31 0 v
-31 59 v
-1 60 v
-1 360 v
-1 360 v
-1 600 v
-31 600 v
-31 660 v
91 660 v
91 600 v
61 600 v
61 342 v
361 60 v
391 60 v
391 0 v
268 0 v
268 59 v
298 60 v
-1 300 v
-1 300 v
0 0 z
EndSpiro
EndSplineSet
        EndChar
StartChar: L
Encoding: 76 76 0
Width: 463
InSpiro: 1
        Flags: H
        LayerCount: 2
        Back
        SplineSet
30 630 m 0
0 630 l 0
0 634 l 0
64 634 l 0
64 630 l 0
34 630 l 0
34 34 l 0
329 34 l 0
329 64 l 0
334 64 l 0
334 0 l 0
329 0 l 0
329 30 l 0
30 30 l 0
30 30 l 0
30 630 l 0
Z
Spiro
30 630 v
0 630 v
0 634 v
64 634 v
64 630 v
34 630 v
34 34 v
329 34 v
329 64 v
334 64 v
334 0 v
329 0 v
329 30 v
30 30 v
30 30 v
0 0 z
EndSpiro
EndSplineSet
        Fore
        SplineSet
-1 600 m 0
-31 600 l 0
-31 660 l 0
91 660 l 0
91 600 l 0
61 600 l 0
61 60 l 0
298 60 l 0
299 90 l 0
360 90 l 0
360 -29 l 0
299 -29 l 0
298 0 l 0
-1 0 l 0
-1 0 l 0
-1 600 l 0
Z
Spiro
-1 600 v
-31 600 v
-31 660 v
91 660 v
91 600 v
61 600 v
61 60 v
298 60 v
299 90 v
360 90 v
360 -29 v
299 -29 v
298 0 v
-1 0 v
-1 0 v
0 0 z
EndSpiro
EndSplineSet
        EndChar
StartChar: M
Encoding: 77 77 0
Width: 613
InSpiro: 1
        Flags: H
        LayerCount: 2
        Back
        SplineSet
34 34 m 0
64 34 l 0
64 30 l 0
0 30 l 0
0 34 l 0
30 34 l 0
30 634 l 0
34 634 l 0
257 37 l 0
479 634 l 0
484 634 l 0
484 34 l 0
514 34 l 0
514 30 l 0
449 30 l 0
449 34 l 0
479 34 l 0
479 620 l 0
259 30 l 0
254 30 l 0
34 620 l 0
34 34 l 0
Z
Spiro
34 34 v
64 34 v
64 30 v
0 30 v
0 34 v
30 34 v
30 634 v
34 634 v
257 37 v
479 634 v
484 634 v
484 34 v
514 34 v
514 30 v
449 30 v
449 34 v
479 34 v
479 620 v
259 30 v
254 30 v
34 620 v
0 0 z
EndSpiro
EndSplineSet
        Fore
        SplineSet
61 60 m 0
91 60 l 0
91 0 l 0
-31 0 l 0
-31 59 l 0
-1 60 l 0
-1 660 l 0
61 660 l 0
255 115 l 0
448 660 l 0
511 660 l 0
511 60 l 0
541 60 l 0
541 0 l 0
418 0 l 0
418 59 l 0
448 60 l 0
449 464 l 0
286 0 l 0
223 0 l 0
60 464 l 0
61 60 l 0
Z
Spiro
61 60 v
91 60 v
91 0 v
-31 0 v
-31 59 v
-1 60 v
-1 660 v
61 660 v
255 115 v
448 660 v
511 660 v
511 60 v
541 60 v
541 0 v
418 0 v
418 59 v
448 60 v
449 464 v
286 0 v
223 0 v
60 464 v
0 0 z
EndSpiro
EndSplineSet
        EndChar
StartChar: O
Encoding: 79 79 0
Width: 463
InSpiro: 1
        Flags: H
        LayerCount: 2
        Back
        SplineSet
34 332 m 0
34 270 35 207 54 149 c 0
63 120 78 92 99 70 c 0
121 48 151 33 182 34 c 0
212 34 241 48 263 70 c 0
285 92 299 120 309 149 c 0
327 207 329 269 329 331 c 0
328 392 327 455 309 514 c 0
299 543 285 571 263 593 c 0
241 615 211 630 181 630 c 0
150 629 120 614 99 593 c 0
77 571 62 543 53 514 c 0
34 455 33 393 34 332 c 0
Z
182 634 m 0
213 634 243 619 265 597 c 0
287 575 302 547 312 517 c 0
332 458 334 394 334 332 c 0
333 269 332 205 312 146 c 0
302 116 287 88 264 66 c 0
242 44 212 29 181 30 c 0
149 30 120 45 97 66 c 0
75 88 60 117 51 146 c 0
31 205 30 268 30 331 c 0
30 393 31 457 51 516 c 0
60 546 76 574 98 596 c 0
120 618 150 633 182 634 c 0
Z
Spiro
34 332 o
182 34 c
329 331 o
181 630 c
182 634 c
334 332 o
181 30 c
30 331 o
0 0 z
EndSpiro
EndSplineSet
        Fore
        SplineSet
61 330 m 0
61 275 59 220 72 167 c 0
78 140 90 114 108 94 c 0
117 84 128 75 140 69 c 0
152 63 166 59 180 60 c 0
193 60 207 63 219 69 c 0
231 75 242 84 251 94 c 0
269 114 280 140 286 166 c 0
300 219 298 274 298 329 c 0
297 383 300 439 286 492 c 0
280 518 269 544 250 565 c 0
241 575 230 584 218 590 c 0
206 596 192 600 179 600 c 0
165 599 151 596 139 590 c 0
127 584 116 575 107 565 c 0
89 544 78 519 71 492 c 0
58 439 60 384 61 330 c 0
Z
180 660 m 0
214 660 248 644 274 621 c 0
299 597 318 567 331 535 c 0
356 470 361 399 361 330 c 0
360 260 356 189 330 124 c 0
317 92 299 61 273 38 c 0
247 15 213 0 179 0 c 0
144 0 110 15 85 38 c 0
59 62 41 92 28 124 c 0
3 189 0 259 -1 329 c 0
-1 398 3 469 28 534 c 0
41 566 59 597 85 620 c 0
111 644 145 659 180 660 c 0
Z
Spiro
61 330 o
180 60 c
298 329 o
179 600 c
180 660 c
361 330 o
179 0 c
-1 329 o
0 0 z
EndSpiro
EndSplineSet
        EndChar
StartChar: Q
Encoding: 81 81 0
Width: 463
InSpiro: 1
        Flags: H
        LayerCount: 2
        Back
        SplineSet
254 180 m 0
224 180 l 0
224 184 l 0
289 184 l 0
289 180 l 0
259 180 l 0
334 34 l 0
364 34 l 0
364 30 l 0
299 30 l 0
299 34 l 0
329 34 l 0
254 180 l 0
Z
34 331 m 0
34 269 35 207 53 148 c 0
63 119 77 91 99 69 c 0
120 48 150 33 181 33 c 0
211 32 241 47 263 69 c 0
285 91 299 119 309 148 c 0
328 207 329 270 329 332 c 0
328 393 327 456 309 514 c 0
299 543 284 571 263 593 c 0
241 615 211 630 181 630 c 0
150 629 120 614 99 593 c 0
77 571 62 543 53 513 c 0
34 455 33 392 34 331 c 0
Z
182 633 m 0
213 633 243 618 265 596 c 0
287 574 302 545 312 516 c 0
332 457 334 393 334 331 c 0
333 268 332 205 312 146 c 0
302 116 287 88 265 66 c 0
243 44 213 30 182 30 c 0
150 29 120 44 98 66 c 0
76 88 61 117 51 146 c 0
31 205 29 269 30 332 c 0
30 394 31 457 51 516 c 0
61 546 76 574 98 596 c 0
120 618 150 632 182 633 c 0
Z
Spiro
254 180 v
224 180 v
224 184 v
289 184 v
289 180 v
259 180 v
334 34 v
364 34 v
364 30 v
299 30 v
299 34 v
329 34 v
34 331 o
181 33 c
329 332 o
181 630 c
182 633 c
334 331 o
182 30 c
30 332 o
0 0 z
EndSpiro
EndSplineSet
        Fore
        SplineSet
223 150 m 0
193 150 l 0
193 210 l 0
316 210 l 0
316 150 l 0
286 150 l 0
361 60 l 0
391 60 l 0
391 0 l 0
268 0 l 0
268 59 l 0
298 60 l 0
223 150 l 0
Z
61 329 m 0
61 274 58 219 71 166 c 0
78 140 89 114 107 93 c 0
116 83 127 74 139 68 c 0
151 62 165 59 179 59 c 0
192 58 206 62 218 68 c 0
230 74 241 83 250 93 c 0
269 113 280 139 286 166 c 0
300 219 298 275 298 330 c 0
297 384 300 439 286 492 c 0
280 519 268 545 250 565 c 0
241 575 230 584 218 590 c 0
206 596 192 600 179 600 c 0
165 599 151 596 139 590 c 0
127 583 116 575 107 565 c 0
89 544 78 518 71 492 c 0
58 439 60 383 61 329 c 0
Z
180 659 m 0
214 659 248 643 274 620 c 0
299 596 318 566 331 534 c 0
356 469 361 398 361 329 c 0
360 259 356 189 330 124 c 0
318 92 299 61 273 38 c 0
248 15 214 0 180 0 c 0
145 0 111 15 85 38 c 0
60 62 41 92 28 124 c 0
3 189 -1 260 -1 330 c 0
0 399 3 469 29 534 c 0
41 566 60 597 86 620 c 0
111 643 145 658 180 659 c 0
Z
Spiro
223 150 v
193 150 v
193 210 v
316 210 v
316 150 v
286 150 v
361 60 v
391 60 v
391 0 v
268 0 v
268 59 v
298 60 v
61 329 o
179 59 c
298 330 o
179 600 c
180 659 c
361 329 o
180 0 c
-1 330 o
0 0 z
EndSpiro
EndSplineSet
        EndChar
StartChar: R
Encoding: 82 82 0
Width: 463
InSpiro: 1
        Flags: H
        LayerCount: 2
        Back
        SplineSet
34 34 m 0
64 34 l 0
64 30 l 0
0 30 l 0
0 34 l 0
30 34 l 0
30 634 l 0
30 634 l 0
182 634 l 0
202 634 223 633 243 628 c 0
263 622 282 612 296 597 c 0
311 582 321 563 326 543 c 0
332 523 334 502 334 482 c 0
334 461 332 440 326 420 c 0
321 400 311 381 296 366 c 0
282 351 263 341 243 335 c 0
223 330 202 329 182 330 c 0
34 330 l 0
34 300 l 0
30 300 l 0
30 364 l 0
34 364 l 0
34 334 l 0
182 334 l 0
202 334 222 334 241 339 c 0
261 345 279 355 293 369 c 0
307 384 316 402 322 422 c 0
327 441 329 461 329 482 c 0
329 502 327 522 322 541 c 0
316 561 307 579 293 594 c 0
279 608 261 618 241 624 c 0
222 629 202 630 182 630 c 0
34 630 l 0
34 34 l 0
Z
34 330 m 0
34 300 l 0
30 300 l 0
30 364 l 0
34 364 l 0
34 334 l 0
184 334 l 0
184 334 l 0
334 34 l 0
364 34 l 0
364 30 l 0
299 30 l 0
299 34 l 0
329 34 l 0
180 330 l 0
34 330 l 0
Z
Spiro
34 34 v
64 34 v
64 30 v
0 30 v
0 34 v
30 34 v
30 634 v
30 634 v
182 634 ]
334 482 c
182 330 [
34 330 v
34 300 v
30 300 v
30 364 v
34 364 v
34 334 v
182 334 ]
329 482 c
182 630 [
34 630 v
34 330 v
34 300 v
30 300 v
30 364 v
34 364 v
34 334 v
184 334 v
184 334 v
334 34 v
364 34 v
364 30 v
299 30 v
299 34 v
329 34 v
180 330 v
0 0 z
EndSpiro
EndSplineSet
        Fore
        SplineSet
61 60 m 0
91 60 l 0
91 0 l 0
-31 0 l 0
-31 59 l 0
-1 60 l 0
-1 660 l 0
-1 660 l 0
180 660 l 0
204 660 229 659 253 653 c 0
277 646 299 634 316 616 c 0
333 599 345 576 352 553 c 0
359 529 361 504 361 480 c 0
361 455 359 430 352 406 c 0
345 383 333 360 316 343 c 0
299 325 277 313 253 306 c 0
229 300 204 299 180 300 c 0
61 300 l 0
60 270 l 0
0 270 l 0
0 390 l 0
60 390 l 0
61 360 l 0
180 360 l 0
196 360 212 360 228 364 c 0
244 369 258 377 269 389 c 0
281 401 288 415 292 431 c 0
297 447 298 463 298 480 c 0
298 496 297 512 292 528 c 0
288 544 280 558 269 570 c 0
258 582 244 590 228 595 c 0
212 599 196 600 180 600 c 0
61 600 l 0
61 60 l 0
Z
61 300 m 0
60 270 l 0
0 270 l 0
0 390 l 0
60 390 l 0
61 360 l 0
211 360 l 0
211 360 l 0
361 60 l 0
391 60 l 0
391 0 l 0
268 0 l 0
268 59 l 0
298 60 l 0
160 300 l 0
61 300 l 0
Z
Spiro
61 60 v
91 60 v
91 0 v
-31 0 v
-31 59 v
-1 60 v
-1 660 v
-1 660 v
180 660 ]
361 480 c
180 300 [
61 300 v
60 270 v
0 270 v
0 390 v
60 390 v
61 360 v
180 360 ]
298 480 c
180 600 [
61 600 v
61 300 v
60 270 v
0 270 v
0 390 v
60 390 v
61 360 v
211 360 v
211 360 v
361 60 v
391 60 v
391 0 v
268 0 v
268 59 v
298 60 v
160 300 v
0 0 z
EndSpiro
EndSplineSet
        EndChar
StartChar: X
Encoding: 88 88 0
Width: 463
InSpiro: 1
        Flags: H
        LayerCount: 2
        Back
        SplineSet
30 630 m 0
0 630 l 0
0 634 l 0
64 634 l 0
64 630 l 0
34 630 l 0
334 34 l 0
364 34 l 0
364 30 l 0
299 30 l 0
299 34 l 0
329 34 l 0
30 630 l 0
Z
329 630 m 0
299 630 l 0
299 634 l 0
364 634 l 0
364 630 l 0
334 630 l 0
34 34 l 0
64 34 l 0
64 30 l 0
0 30 l 0
0 34 l 0
30 34 l 0
329 630 l 0
Z
Spiro
30 630 v
0 630 v
0 634 v
64 634 v
64 630 v
34 630 v
334 34 v
364 34 v
364 30 v
299 30 v
299 34 v
329 34 v
329 630 v
299 630 v
299 634 v
364 634 v
364 630 v
334 630 v
34 34 v
64 34 v
64 30 v
0 30 v
0 34 v
30 34 v
0 0 z
EndSpiro
EndSplineSet
        Fore
        SplineSet
-1 600 m 0
-31 600 l 0
-31 660 l 0
91 660 l 0
91 600 l 0
61 600 l 0
361 60 l 0
391 60 l 0
391 0 l 0
268 0 l 0
268 59 l 0
298 60 l 0
-1 600 l 0
Z
298 600 m 0
268 600 l 0
268 660 l 0
391 660 l 0
391 600 l 0
361 600 l 0
61 60 l 0
91 60 l 0
91 0 l 0
-31 0 l 0
-31 59 l 0
-1 60 l 0
298 600 l 0
Z
Spiro
-1 600 v
-31 600 v
-31 660 v
91 660 v
91 600 v
61 600 v
361 60 v
391 60 v
391 0 v
268 0 v
268 59 v
298 60 v
298 600 v
268 600 v
268 660 v
391 660 v
391 600 v
361 600 v
61 60 v
91 60 v
91 0 v
-31 0 v
-31 59 v
-1 60 v
0 0 z
EndSpiro
EndSplineSet
        EndChar
StartChar: Y
Encoding: 89 89 0
Width: 463
InSpiro: 1
        Flags: H
        LayerCount: 2
        Back
        SplineSet
30 630 m 0
0 630 l 0
0 634 l 0
64 634 l 0
64 630 l 0
34 630 l 0
182 336 l 0
329 630 l 0
299 630 l 0
299 634 l 0
364 634 l 0
364 630 l 0
334 630 l 0
184 330 l 0
179 330 l 0
30 630 l 0
Z
179 330 m 0
149 330 l 0
149 334 l 0
214 334 l 0
214 330 l 0
184 330 l 0
184 34 l 0
214 34 l 0
214 30 l 0
149 30 l 0
149 34 l 0
179 34 l 0
179 330 l 0
Z
Spiro
30 630 v
0 630 v
0 634 v
64 634 v
64 630 v
34 630 v
182 336 v
329 630 v
299 630 v
299 634 v
364 634 v
364 630 v
334 630 v
184 330 v
179 330 v
179 330 v
149 330 v
149 334 v
214 334 v
214 330 v
184 330 v
184 34 v
214 34 v
214 30 v
149 30 v
149 34 v
179 34 v
0 0 z
EndSpiro
EndSplineSet
        Fore
        SplineSet
-1 600 m 0
-31 600 l 0
-31 660 l 0
91 660 l 0
91 600 l 0
61 600 l 0
180 397 l 0
298 600 l 0
268 600 l 0
268 660 l 0
391 660 l 0
391 600 l 0
361 600 l 0
211 300 l 0
148 300 l 0
-1 600 l 0
Z
148 300 m 0
118 300 l 0
118 360 l 0
241 360 l 0
241 300 l 0
211 300 l 0
211 60 l 0
241 60 l 0
241 0 l 0
118 0 l 0
118 59 l 0
148 60 l 0
148 300 l 0
Z
Spiro
-1 600 v
-31 600 v
-31 660 v
91 660 v
91 600 v
61 600 v
180 397 v
298 600 v
268 600 v
268 660 v
391 660 v
391 600 v
361 600 v
211 300 v
148 300 v
148 300 v
118 300 v
118 360 v
241 360 v
241 300 v
211 300 v
211 60 v
241 60 v
241 0 v
118 0 v
118 59 v
148 60 v
0 0 z
EndSpiro
EndSplineSet
        EndChar
StartChar: b
Encoding: 98 98 0
Width: 463
InSpiro: 1
        Flags: H
        LayerCount: 2
        Back
        SplineSet
30 630 m 0
0 630 l 0
0 634 l 0
64 634 l 0
64 630 l 0
34 630 l 0
34 34 l 0
64 34 l 0
64 30 l 0
0 30 l 0
0 34 l 0
30 34 l 0
30 630 l 0
Z
34 334 m 0
64 334 l 0
64 330 l 0
0 330 l 0
0 334 l 0
30 334 l 0
39 365 60 392 88 410 c 0
115 428 149 436 182 433 c 0
227 427 269 399 295 362 c 0
321 324 333 277 334 232 c 0
334 185 322 138 296 101 c 0
269 63 227 35 182 30 c 0
149 26 115 34 87 52 c 0
60 70 39 98 30 130 c 0
0 130 l 0
0 134 l 0
64 134 l 0
64 130 l 0
34 130 l 0
43 99 63 72 89 54 c 0
116 37 149 29 181 33 c 0
226 38 266 65 292 103 c 0
317 140 329 186 329 232 c 0
328 277 317 322 292 360 c 0
266 397 225 424 181 430 c 0
149 433 116 425 90 408 c 0
63 391 43 364 34 334 c 0
Z
Spiro
30 630 v
0 630 v
0 634 v
64 634 v
64 630 v
34 630 v
34 34 v
64 34 v
64 30 v
0 30 v
0 34 v
30 34 v
34 334 v
64 334 v
64 330 v
0 330 v
0 334 v
30 334 v
182 433 c
334 232 c
182 30 c
30 130 v
0 130 v
0 134 v
64 134 v
64 130 v
34 130 v
181 33 c
329 232 c
181 430 c
0 0 z
EndSpiro
EndSplineSet
        Fore
        SplineSet
-1 600 m 0
-31 600 l 0
-31 660 l 0
91 660 l 0
91 600 l 0
61 600 l 0
61 60 l 0
91 60 l 0
91 0 l 0
-31 0 l 0
-31 59 l 0
-1 60 l 0
-1 600 l 0
Z
61 360 m 0
91 360 l 0
91 300 l 0
-31 300 l 0
-31 360 l 0
-1 360 l 0
15 393 42 421 74 439 c 0
107 456 146 463 183 459 c 0
235 451 283 421 314 378 c 0
345 336 360 282 361 230 c 0
361 177 346 123 314 80 c 0
283 38 235 6 183 0 c 0
146 -4 107 2 74 20 c 0
41 37 15 66 -1 100 c 0
-31 100 l 0
-31 160 l 0
91 160 l 0
91 100 l 0
61 100 l 0
74 83 93 71 113 64 c 0
133 57 155 55 176 59 c 0
213 65 246 89 267 121 c 0
288 153 298 191 298 230 c 0
297 267 288 306 267 337 c 0
246 369 213 393 176 400 c 0
155 403 133 402 113 395 c 0
93 388 75 375 61 360 c 0
Z
Spiro
-1 600 v
-31 600 v
-31 660 v
91 660 v
91 600 v
61 600 v
61 60 v
91 60 v
91 0 v
-31 0 v
-31 59 v
-1 60 v
61 360 v
91 360 v
91 300 v
-31 300 v
-31 360 v
-1 360 v
183 459 c
361 230 c
183 0 c
-1 100 v
-31 100 v
-31 160 v
91 160 v
91 100 v
61 100 v
176 59 c
298 230 c
176 400 c
0 0 z
EndSpiro
EndSplineSet
        EndChar
StartChar: c
Encoding: 99 99 0
Width: 463
InSpiro: 1
        Flags: H
        LayerCount: 2
        Back
        SplineSet
334 336 m 0
364 336 l 0
364 332 l 0
299 332 l 0
299 336 l 0
329 336 l 0
319 365 298 392 272 409 c 0
245 426 213 433 182 430 c 0
137 424 96 397 71 360 c 0
45 322 34 277 34 232 c 0
33 186 45 140 70 103 c 0
96 65 137 38 182 33 c 0
213 29 245 37 272 54 c 0
299 71 319 97 329 128 c 0
299 128 l 0
299 132 l 0
364 132 l 0
364 128 l 0
334 128 l 0
323 96 302 69 275 51 c 0
247 33 213 26 181 30 c 0
135 35 93 63 67 101 c 0
41 139 29 185 30 232 c 0
30 277 41 324 68 361 c 0
94 399 135 427 181 433 c 0
213 436 247 429 274 411 c 0
302 394 323 367 334 336 c 0
Z
Spiro
334 336 v
364 336 v
364 332 v
299 332 v
299 336 v
329 336 v
182 430 c
34 232 c
182 33 c
329 128 v
299 128 v
299 132 v
364 132 v
364 128 v
334 128 v
181 30 c
30 232 c
181 433 c
0 0 z
EndSpiro
EndSplineSet
        Fore
        SplineSet
361 390 m 0
391 390 l 0
391 330 l 0
268 330 l 0
268 390 l 0
298 390 l 0
262 407 221 410 184 400 c 0
147 389 115 366 94 335 c 0
72 305 61 267 61 230 c 0
60 192 72 154 93 123 c 0
115 92 147 69 184 59 c 0
221 48 263 52 298 70 c 0
268 70 l 0
268 130 l 0
391 130 l 0
391 70 l 0
361 70 l 0
339 42 310 21 277 9 c 0
245 -3 209 -6 175 0 c 0
123 9 76 40 45 82 c 0
14 124 0 176 -1 229 c 0
-1 281 14 334 45 376 c 0
76 418 123 449 175 459 c 0
209 465 244 462 277 450 c 0
310 438 339 417 361 390 c 0
Z
Spiro
361 390 v
391 390 v
391 330 v
268 330 v
268 390 v
298 390 v
184 400 c
61 230 c
184 59 c
298 70 v
268 70 v
268 130 v
391 130 v
391 70 v
361 70 v
175 0 c
-1 229 c
175 459 c
0 0 z
EndSpiro
EndSplineSet
        EndChar
StartChar: d
Encoding: 100 100 0
Width: 463
InSpiro: 1
        Flags: H
        LayerCount: 2
        Back
        SplineSet
334 34 m 0
364 34 l 0
364 30 l 0
299 30 l 0
299 34 l 0
329 34 l 0
329 630 l 0
299 630 l 0
299 634 l 0
364 634 l 0
364 630 l 0
334 630 l 0
334 34 l 0
Z
334 334 m 0
364 334 l 0
364 330 l 0
299 330 l 0
299 334 l 0
329 334 l 0
319 364 299 391 272 408 c 0
246 425 213 433 182 430 c 0
137 424 96 397 70 360 c 0
45 322 34 277 34 232 c 0
33 186 45 140 70 103 c 0
96 65 136 38 182 33 c 0
213 29 246 37 273 54 c 0
299 72 319 99 329 130 c 0
299 130 l 0
299 134 l 0
364 134 l 0
364 130 l 0
334 130 l 0
324 98 303 70 275 52 c 0
247 34 213 26 181 30 c 0
135 35 93 63 67 101 c 0
41 139 29 185 30 232 c 0
30 277 41 324 68 361 c 0
94 399 135 427 181 433 c 0
213 436 247 429 275 411 c 0
303 393 324 365 334 334 c 0
Z
Spiro
334 34 v
364 34 v
364 30 v
299 30 v
299 34 v
329 34 v
329 630 v
299 630 v
299 634 v
364 634 v
364 630 v
334 630 v
334 334 v
364 334 v
364 330 v
299 330 v
299 334 v
329 334 v
182 430 c
34 232 c
182 33 c
329 130 v
299 130 v
299 134 v
364 134 v
364 130 v
334 130 v
181 30 c
30 232 c
181 433 c
0 0 z
EndSpiro
EndSplineSet
        Fore
        SplineSet
361 60 m 0
391 60 l 0
391 0 l 0
268 0 l 0
268 59 l 0
298 60 l 0
298 600 l 0
268 600 l 0
268 660 l 0
391 660 l 0
391 600 l 0
361 600 l 0
361 60 l 0
Z
361 360 m 0
391 360 l 0
391 300 l 0
268 300 l 0
268 360 l 0
298 360 l 0
283 375 265 388 245 395 c 0
225 402 203 403 183 400 c 0
145 393 112 369 91 337 c 0
70 306 61 267 61 230 c 0
60 191 70 153 91 121 c 0
112 89 145 65 183 59 c 0
203 55 225 57 245 64 c 0
265 71 284 83 298 100 c 0
268 100 l 0
268 160 l 0
391 160 l 0
391 100 l 0
361 100 l 0
344 66 317 37 284 19 c 0
251 1 213 -5 176 0 c 0
123 7 75 38 44 81 c 0
13 123 -1 177 -1 230 c 0
0 282 14 335 45 378 c 0
76 420 123 451 176 459 c 0
213 464 251 457 284 439 c 0
317 421 344 393 361 360 c 0
Z
Spiro
361 60 v
391 60 v
391 0 v
268 0 v
268 59 v
298 60 v
298 600 v
268 600 v
268 660 v
391 660 v
391 600 v
361 600 v
361 360 v
391 360 v
391 300 v
268 300 v
268 360 v
298 360 v
183 400 c
61 230 c
183 59 c
298 100 v
268 100 v
268 160 v
391 160 v
391 100 v
361 100 v
176 0 c
-1 230 c
176 459 c
0 0 z
EndSpiro
EndSplineSet
        EndChar
StartChar: e
Encoding: 101 101 0
Width: 463
InSpiro: 1
        Flags: H
        LayerCount: 2
        Back
        SplineSet
36 230 m 0
36 200 l 0
31 200 l 0
31 264 l 0
36 264 l 0
36 234 l 0
329 234 l 0
339 265 340 299 330 331 c 0
319 361 299 388 273 406 c 0
246 424 213 433 182 430 c 0
159 427 137 419 118 407 c 0
99 395 83 379 70 360 c 0
44 323 33 277 34 232 c 0
34 186 45 140 70 103 c 0
96 66 137 38 182 33 c 0
213 29 245 36 272 54 c 0
299 71 319 97 329 128 c 0
299 128 l 0
299 132 l 0
364 132 l 0
364 128 l 0
334 128 l 0
324 96 302 69 275 51 c 0
247 33 213 25 181 30 c 0
135 35 94 63 68 101 c 0
42 138 30 185 30 231 c 0
29 277 40 324 66 362 c 0
79 381 96 398 116 410 c 0
135 422 158 430 181 433 c 0
213 436 247 427 274 408 c 0
301 390 322 362 333 332 c 0
344 299 344 262 334 230 c 0
334 230 l 0
36 230 l 0
Z
Spiro
36 230 v
36 200 v
31 200 v
31 264 v
36 264 v
36 234 v
329 234 v
330 331 c
182 430 c
34 232 c
182 33 c
329 128 v
299 128 v
299 132 v
364 132 v
364 128 v
334 128 v
181 30 c
30 231 c
181 433 c
333 332 c
334 230 v
334 230 v
0 0 z
EndSpiro
EndSplineSet
        Fore
        SplineSet
91 200 m 0
90 170 l 0
29 170 l 0
29 290 l 0
90 290 l 0
91 260 l 0
298 260 l 0
304 279 305 300 300 320 c 0
293 345 277 367 255 381 c 0
234 396 207 402 182 400 c 0
162 397 144 391 128 380 c 0
112 370 98 355 88 339 c 0
67 307 59 268 61 230 c 0
62 192 74 155 95 124 c 0
116 93 148 69 184 59 c 0
221 47 263 51 298 70 c 0
268 70 l 0
268 130 l 0
391 130 l 0
391 70 l 0
361 70 l 0
339 42 310 21 277 8 c 0
245 -3 209 -6 175 0 c 0
123 9 77 41 47 82 c 0
16 124 0 176 -1 229 c 0
-2 282 11 337 42 380 c 0
74 423 123 454 177 459 c 0
215 462 255 451 287 429 c 0
320 407 345 375 359 339 c 0
375 294 376 244 361 200 c 0
361 200 l 0
91 200 l 0
Z
Spiro
91 200 v
90 170 v
29 170 v
29 290 v
90 290 v
91 260 v
298 260 v
300 320 c
182 400 c
61 230 c
184 59 c
298 70 v
268 70 v
268 130 v
391 130 v
391 70 v
361 70 v
175 0 c
-1 229 c
177 459 c
359 339 c
361 200 v
361 200 v
0 0 z
EndSpiro
EndSplineSet
        EndChar
StartChar: f
Encoding: 102 102 0
Width: 313
InSpiro: 1
        Flags: H
        LayerCount: 2
        Back
        SplineSet
179 634 m 0
179 664 l 0
184 664 l 0
184 600 l 0
179 600 l 0
179 630 l 0
155 630 132 624 112 613 c 0
91 602 74 585 62 566 c 0
49 546 41 524 38 501 c 0
34 478 33 455 34 432 c 0
34 34 l 0
64 34 l 0
64 30 l 0
0 30 l 0
0 34 l 0
30 34 l 0
30 432 l 0
30 455 30 479 34 503 c 0
38 526 46 549 58 569 c 0
71 589 89 606 110 617 c 0
131 629 155 634 179 634 c 0
Z
34 430 m 0
34 400 l 0
30 400 l 0
30 464 l 0
34 464 l 0
34 434 l 0
179 434 l 0
179 464 l 0
184 464 l 0
184 400 l 0
179 400 l 0
179 430 l 0
34 430 l 0
Z
Spiro
179 634 v
179 664 v
184 664 v
184 600 v
179 600 v
179 630 v
34 432 [
34 34 v
64 34 v
64 30 v
0 30 v
0 34 v
30 34 v
30 432 ]
34 430 v
34 400 v
30 400 v
30 464 v
34 464 v
34 434 v
179 434 v
179 464 v
184 464 v
184 400 v
179 400 v
179 430 v
0 0 z
EndSpiro
EndSplineSet
        Fore
        SplineSet
148 660 m 0
149 690 l 0
210 690 l 0
210 570 l 0
149 570 l 0
148 600 l 0
116 587 90 561 76 530 c 0
62 499 60 464 61 430 c 0
61 60 l 0
91 60 l 0
91 0 l 0
-31 0 l 0
-31 59 l 0
-1 60 l 0
-1 430 l 0
-1 455 0 480 3 505 c 0
6 530 14 555 26 577 c 0
39 599 56 619 77 633 c 0
98 647 122 656 148 660 c 0
Z
61 400 m 0
60 370 l 0
0 370 l 0
0 490 l 0
60 490 l 0
61 460 l 0
148 460 l 0
149 490 l 0
210 490 l 0
210 370 l 0
149 370 l 0
148 400 l 0
61 400 l 0
Z
Spiro
148 660 v
149 690 v
210 690 v
210 570 v
149 570 v
148 600 v
61 430 [
61 60 v
91 60 v
91 0 v
-31 0 v
-31 59 v
-1 60 v
-1 430 ]
61 400 v
60 370 v
0 370 v
0 490 v
60 490 v
61 460 v
148 460 v
149 490 v
210 490 v
210 370 v
149 370 v
148 400 v
0 0 z
EndSpiro
EndSplineSet
        EndChar
StartChar: g
Encoding: 103 103 0
Width: 463
InSpiro: 1
        Flags: H
        LayerCount: 2
        Back
        SplineSet
329 390 m 0
299 390 l 0
299 394 l 0
364 394 l 0
364 390 l 0
334 390 l 0
334 32 l 0
333 -29 333 -92 311 -149 c 0
300 -178 284 -205 262 -227 c 0
240 -248 212 -263 182 -269 c 0
149 -274 114 -267 86 -249 c 0
58 -230 38 -202 30 -170 c 0
0 -170 l 0
0 -166 l 0
64 -166 l 0
64 -170 l 0
34 -170 l 0
41 -201 61 -229 88 -246 c 0
115 -264 149 -271 181 -266 c 0
210 -261 238 -245 259 -224 c 0
281 -203 297 -176 307 -148 c 0
328 -91 328 -29 329 31 c 0
329 390 l 0
Z
334 294 m 0
364 294 l 0
364 290 l 0
299 290 l 0
299 294 l 0
329 294 l 0
318 323 298 350 272 367 c 0
245 384 213 392 182 390 c 0
139 386 100 363 73 330 c 0
47 297 34 254 34 212 c 0
33 169 47 126 73 93 c 0
99 59 139 36 182 33 c 0
213 30 245 38 272 56 c 0
298 73 318 99 329 130 c 0
299 130 l 0
299 134 l 0
364 134 l 0
364 130 l 0
334 130 l 0
323 98 302 71 274 53 c 0
247 35 213 27 181 30 c 0
138 33 97 57 70 90 c 0
43 124 30 167 30 211 c 0
29 254 43 297 70 331 c 0
97 365 137 389 181 393 c 0
213 395 247 387 274 369 c 0
302 352 323 324 334 294 c 0
Z
Spiro
329 390 v
299 390 v
299 394 v
364 394 v
364 390 v
334 390 v
334 32 ]
182 -269 c
30 -170 v
0 -170 v
0 -166 v
64 -166 v
64 -170 v
34 -170 v
181 -266 c
329 31 [
334 294 v
364 294 v
364 290 v
299 290 v
299 294 v
329 294 v
182 390 c
34 212 c
182 33 c
329 130 v
299 130 v
299 134 v
364 134 v
364 130 v
334 130 v
181 30 c
30 211 c
181 393 c
0 0 z
EndSpiro
EndSplineSet
        Fore
        SplineSet
298 360 m 0
268 360 l 0
268 420 l 0
391 420 l 0
391 360 l 0
361 360 l 0
361 30 l 0
360 -37 359 -107 332 -170 c 0
319 -201 300 -230 274 -253 c 0
249 -276 218 -292 185 -299 c 0
147 -305 108 -299 74 -282 c 0
41 -264 14 -234 -1 -200 c 0
-31 -200 l 0
-31 -140 l 0
91 -140 l 0
91 -200 l 0
61 -200 l 0
74 -216 91 -229 111 -236 c 0
131 -243 153 -244 174 -240 c 0
200 -234 223 -219 241 -199 c 0
260 -179 272 -155 281 -130 c 0
298 -79 297 -24 298 29 c 0
298 360 l 0
Z
361 320 m 0
391 320 l 0
391 260 l 0
268 260 l 0
268 320 l 0
298 320 l 0
268 351 224 366 182 360 c 0
147 354 115 335 94 307 c 0
72 280 61 244 61 210 c 0
60 174 72 139 93 111 c 0
115 84 147 64 182 59 c 0
224 52 269 68 298 100 c 0
268 100 l 0
268 160 l 0
391 160 l 0
391 100 l 0
361 100 l 0
344 66 317 39 284 21 c 0
251 3 213 -3 177 0 c 0
127 5 80 31 48 70 c 0
16 108 0 158 -1 209 c 0
-1 259 15 309 47 348 c 0
79 387 127 413 177 419 c 0
213 422 251 415 284 397 c 0
316 380 343 352 361 320 c 0
Z
Spiro
298 360 v
268 360 v
268 420 v
391 420 v
391 360 v
361 360 v
361 30 ]
185 -299 c
-1 -200 v
-31 -200 v
-31 -140 v
91 -140 v
91 -200 v
61 -200 v
174 -240 c
298 29 [
361 320 v
391 320 v
391 260 v
268 260 v
268 320 v
298 320 v
182 360 c
61 210 c
182 59 c
298 100 v
268 100 v
268 160 v
391 160 v
391 100 v
361 100 v
177 0 c
-1 209 c
177 419 c
0 0 z
EndSpiro
EndSplineSet
        EndChar
StartChar: h
Encoding: 104 104 0
Width: 463
InSpiro: 1
        Flags: H
        LayerCount: 2
        Back
        SplineSet
34 34 m 0
64 34 l 0
64 30 l 0
0 30 l 0
0 34 l 0
30 34 l 0
30 630 l 0
0 630 l 0
0 634 l 0
64 634 l 0
64 630 l 0
34 630 l 0
34 34 l 0
Z
34 294 m 0
64 294 l 0
64 290 l 0
0 290 l 0
0 294 l 0
30 294 l 0
43 322 65 346 91 364 c 0
118 381 149 391 181 393 c 0
203 393 226 390 247 381 c 0
268 372 287 358 301 341 c 0
315 323 324 301 329 279 c 0
333 257 334 234 334 212 c 0
334 34 l 0
364 34 l 0
364 30 l 0
299 30 l 0
299 34 l 0
329 34 l 0
329 212 l 0
328 234 328 256 324 277 c 0
319 299 311 320 297 337 c 0
284 355 266 368 246 377 c 0
226 386 203 390 182 390 c 0
151 389 120 379 94 362 c 0
68 346 47 321 34 294 c 0
Z
Spiro
34 34 v
64 34 v
64 30 v
0 30 v
0 34 v
30 34 v
30 630 v
0 630 v
0 634 v
64 634 v
64 630 v
34 630 v
34 294 v
64 294 v
64 290 v
0 290 v
0 294 v
30 294 v
181 393 c
334 212 [
334 34 v
364 34 v
364 30 v
299 30 v
299 34 v
329 34 v
329 212 ]
182 390 c
0 0 z
EndSpiro
EndSplineSet
        Fore
        SplineSet
61 60 m 0
91 60 l 0
91 0 l 0
-31 0 l 0
-31 59 l 0
-1 60 l 0
-1 600 l 0
-31 600 l 0
-31 660 l 0
91 660 l 0
91 600 l 0
61 600 l 0
61 60 l 0
Z
61 320 m 0
91 320 l 0
91 260 l 0
-31 260 l 0
-31 320 l 0
-1 320 l 0
39 378 107 415 178 419 c 0
204 420 231 416 256 406 c 0
281 397 303 381 320 360 c 0
337 340 349 315 354 289 c 0
360 263 361 236 361 210 c 0
361 60 l 0
391 60 l 0
391 0 l 0
268 0 l 0
268 59 l 0
298 60 l 0
298 210 l 0
298 227 297 245 294 263 c 0
290 280 283 297 273 312 c 0
262 326 248 338 232 346 c 0
216 354 198 358 181 360 c 0
137 363 93 348 61 320 c 0
Z
Spiro
61 60 v
91 60 v
91 0 v
-31 0 v
-31 59 v
-1 60 v
-1 600 v
-31 600 v
-31 660 v
91 660 v
91 600 v
61 600 v
61 320 v
91 320 v
91 260 v
-31 260 v
-31 320 v
-1 320 v
178 419 c
361 210 [
361 60 v
391 60 v
391 0 v
268 0 v
268 59 v
298 60 v
298 210 ]
181 360 c
0 0 z
EndSpiro
EndSplineSet
        EndChar
StartChar: j
Encoding: 106 106 0
Width: 403
InSpiro: 1
        Flags: H
        LayerCount: 2
        Back
        SplineSet
269 390 m 0
239 390 l 0
239 394 l 0
304 394 l 0
304 390 l 0
274 390 l 0
274 32 l 0
273 -23 276 -79 267 -133 c 0
262 -161 254 -188 241 -212 c 0
227 -236 207 -257 182 -269 c 0
165 -276 147 -279 129 -278 c 0
111 -276 93 -270 78 -261 c 0
63 -251 51 -237 42 -221 c 0
34 -205 29 -187 30 -170 c 0
0 -170 l 0
0 -166 l 0
64 -166 l 0
64 -170 l 0
34 -170 l 0
33 -187 37 -204 46 -220 c 0
54 -235 66 -248 81 -258 c 0
95 -268 112 -273 130 -275 c 0
147 -276 165 -273 181 -266 c 0
205 -254 225 -233 238 -209 c 0
251 -186 259 -159 263 -132 c 0
271 -78 268 -23 269 31 c 0
269 390 l 0
Z
272 505 m 0
273 504 275 505 276 507 c 0
278 508 279 510 279 512 c 0
278 513 278 515 276 516 c 0
275 518 273 518 272 519 c 0
270 519 268 518 267 516 c 0
265 515 265 513 265 512 c 0
264 510 265 508 267 507 c 0
268 505 270 504 272 505 c 0
Z
Spiro
269 390 v
239 390 v
239 394 v
304 394 v
304 390 v
274 390 v
274 32 ]
182 -269 c
30 -170 v
0 -170 v
0 -166 v
64 -166 v
64 -170 v
34 -170 v
181 -266 c
269 31 [
272 505 c
279 512 c
272 519 c
265 512 c
0 0 z
EndSpiro
EndSplineSet
        Fore
        SplineSet
238 360 m 0
208 360 l 0
208 420 l 0
331 420 l 0
331 360 l 0
301 360 l 0
301 30 l 0
300 -30 302 -91 289 -150 c 0
283 -180 273 -209 257 -235 c 0
242 -261 220 -283 193 -297 c 0
155 -315 109 -315 71 -296 c 0
34 -278 6 -241 -1 -200 c 0
-31 -200 l 0
-31 -140 l 0
91 -140 l 0
91 -200 l 0
61 -200 l 0
69 -218 85 -234 105 -242 c 0
124 -249 146 -249 166 -242 c 0
188 -232 206 -213 217 -191 c 0
228 -168 233 -144 236 -119 c 0
241 -70 237 -20 238 29 c 0
238 360 l 0
Z
270 475 m 0
279 474 288 478 294 485 c 0
301 491 305 500 305 510 c 0
304 519 301 528 294 534 c 0
288 541 279 544 270 545 c 0
260 545 251 541 245 534 c 0
238 528 235 519 235 510 c 0
234 500 238 491 245 485 c 0
251 478 260 474 270 475 c 0
Z
Spiro
238 360 v
208 360 v
208 420 v
331 420 v
331 360 v
301 360 v
301 30 ]
193 -297 c
-1 -200 v
-31 -200 v
-31 -140 v
91 -140 v
91 -200 v
61 -200 v
166 -242 c
238 29 [
270 475 c
305 510 c
270 545 c
235 510 c
0 0 z
EndSpiro
EndSplineSet
        EndChar
StartChar: k
Encoding: 107 107 0
Width: 403
InSpiro: 1
        Flags: H
        LayerCount: 2
        Back
        SplineSet
30 630 m 0
0 630 l 0
0 634 l 0
64 634 l 0
64 630 l 0
34 630 l 0
34 34 l 0
64 34 l 0
64 30 l 0
0 30 l 0
0 34 l 0
30 34 l 0
30 630 l 0
Z
269 434 m 0
269 464 l 0
274 464 l 0
274 400 l 0
269 400 l 0
269 430 l 0
35 232 l 0
269 34 l 0
269 64 l 0
274 64 l 0
274 0 l 0
269 0 l 0
269 30 l 0
30 230 l 0
30 234 l 0
269 434 l 0
Z
Spiro
30 630 v
0 630 v
0 634 v
64 634 v
64 630 v
34 630 v
34 34 v
64 34 v
64 30 v
0 30 v
0 34 v
30 34 v
269 434 v
269 464 v
274 464 v
274 400 v
269 400 v
269 430 v
35 232 v
269 34 v
269 64 v
274 64 v
274 0 v
269 0 v
269 30 v
30 230 v
30 234 v
0 0 z
EndSpiro
EndSplineSet
        Fore
        SplineSet
-1 600 m 0
-31 600 l 0
-31 660 l 0
91 660 l 0
91 600 l 0
61 600 l 0
61 60 l 0
91 60 l 0
91 0 l 0
-31 0 l 0
-31 59 l 0
-1 60 l 0
-1 600 l 0
Z
238 460 m 0
239 490 l 0
300 490 l 0
300 370 l 0
239 370 l 0
238 400 l 0
78 230 l 0
238 60 l 0
239 90 l 0
300 90 l 0
300 -29 l 0
239 -29 l 0
238 0 l 0
-1 200 l 0
-1 260 l 0
238 460 l 0
Z
Spiro
-1 600 v
-31 600 v
-31 660 v
91 660 v
91 600 v
61 600 v
61 60 v
91 60 v
91 0 v
-31 0 v
-31 59 v
-1 60 v
238 460 v
239 490 v
300 490 v
300 370 v
239 370 v
238 400 v
78 230 v
238 60 v
239 90 v
300 90 v
300 -29 v
239 -29 v
238 0 v
-1 200 v
-1 260 v
0 0 z
EndSpiro
EndSplineSet
        EndChar
StartChar: l
Encoding: 108 108 0
Width: 313
InSpiro: 1
        Flags: H
        LayerCount: 2
        Back
        SplineSet
30 630 m 0
0 630 l 0
0 634 l 0
64 634 l 0
64 630 l 0
34 630 l 0
34 232 l 0
33 208 34 185 38 162 c 0
41 139 49 117 62 97 c 0
74 78 91 61 112 50 c 0
132 39 155 33 179 34 c 0
179 64 l 0
184 64 l 0
184 0 l 0
179 0 l 0
179 30 l 0
155 29 131 34 110 46 c 0
89 57 71 74 58 94 c 0
46 114 38 137 34 160 c 0
30 184 29 208 30 232 c 0
30 630 l 0
Z
Spiro
30 630 v
0 630 v
0 634 v
64 634 v
64 630 v
34 630 v
34 232 ]
179 34 v
179 64 v
184 64 v
184 0 v
179 0 v
179 30 v
30 232 [
0 0 z
EndSpiro
EndSplineSet
        Fore
        SplineSet
-1 600 m 0
-31 600 l 0
-31 660 l 0
91 660 l 0
91 600 l 0
61 600 l 0
61 230 l 0
61 195 62 160 76 129 c 0
90 98 116 72 148 60 c 0
149 90 l 0
210 90 l 0
210 -29 l 0
149 -29 l 0
148 0 l 0
122 3 98 12 77 26 c 0
56 40 39 60 26 82 c 0
14 104 6 129 3 154 c 0
0 179 -1 204 -1 230 c 0
-1 600 l 0
Z
Spiro
-1 600 v
-31 600 v
-31 660 v
91 660 v
91 600 v
61 600 v
61 230 ]
148 60 v
149 90 v
210 90 v
210 -29 v
149 -29 v
148 0 v
-1 230 [
0 0 z
EndSpiro
EndSplineSet
        EndChar
StartChar: m
Encoding: 109 109 0
Width: 643
InSpiro: 1
        Flags: H
        LayerCount: 2
        Back
        SplineSet
30 390 m 0
0 390 l 0
0 394 l 0
64 394 l 0
64 390 l 0
34 390 l 0
34 34 l 0
64 34 l 0
64 30 l 0
0 30 l 0
0 34 l 0
30 34 l 0
30 390 l 0
Z
34 34 m 0
64 34 l 0
64 30 l 0
0 30 l 0
0 34 l 0
30 34 l 0
30 292 l 0
32 326 51 360 81 379 c 0
110 399 148 404 182 393 c 0
199 387 215 377 228 364 c 0
241 351 251 336 258 319 c 0
272 285 274 248 274 212 c 0
274 34 l 0
304 34 l 0
304 30 l 0
239 30 l 0
239 34 l 0
269 34 l 0
269 212 l 0
269 247 267 284 254 316 c 0
247 333 237 348 225 361 c 0
213 374 197 384 181 390 c 0
148 401 111 396 82 377 c 0
54 358 35 325 34 291 c 0
34 34 l 0
Z
274 34 m 0
304 34 l 0
304 30 l 0
239 30 l 0
239 34 l 0
269 34 l 0
269 242 l 0
269 263 269 285 274 306 c 0
278 327 288 347 303 364 c 0
317 380 336 391 358 396 c 0
379 401 401 400 422 393 c 0
456 380 483 352 498 319 c 0
512 285 514 248 514 212 c 0
514 34 l 0
544 34 l 0
544 30 l 0
479 30 l 0
479 34 l 0
509 34 l 0
509 212 l 0
508 247 507 284 494 316 c 0
487 333 477 348 465 361 c 0
452 374 437 384 421 390 c 0
401 397 379 398 359 393 c 0
338 387 320 376 306 360 c 0
292 344 283 325 278 304 c 0
274 284 273 262 274 242 c 0
274 34 l 0
Z
Spiro
30 390 v
0 390 v
0 394 v
64 394 v
64 390 v
34 390 v
34 34 v
64 34 v
64 30 v
0 30 v
0 34 v
30 34 v
34 34 v
64 34 v
64 30 v
0 30 v
0 34 v
30 34 v
30 292 v
182 393 c
274 212 [
274 34 v
304 34 v
304 30 v
239 30 v
239 34 v
269 34 v
269 212 ]
181 390 c
34 291 v
274 34 v
304 34 v
304 30 v
239 30 v
239 34 v
269 34 v
269 242 ]
422 393 c
514 212 [
514 34 v
544 34 v
544 30 v
479 30 v
479 34 v
509 34 v
509 212 ]
421 390 c
274 242 [
0 0 z
EndSpiro
EndSplineSet
        Fore
        SplineSet
-1 360 m 0
-31 360 l 0
-31 420 l 0
91 420 l 0
91 360 l 0
61 360 l 0
61 60 l 0
91 60 l 0
91 0 l 0
-31 0 l 0
-31 59 l 0
-1 60 l 0
-1 360 l 0
Z
61 60 m 0
91 60 l 0
91 0 l 0
-31 0 l 0
-31 59 l 0
-1 60 l 0
-1 290 l 0
2 334 26 376 63 400 c 0
99 425 148 431 190 418 c 0
230 404 263 373 281 334 c 0
299 296 301 252 301 210 c 0
301 60 l 0
331 60 l 0
331 0 l 0
208 0 l 0
208 59 l 0
238 60 l 0
238 210 l 0
238 239 237 269 227 297 c 0
222 311 215 324 205 336 c 0
195 347 182 355 169 361 c 0
145 369 117 366 96 352 c 0
75 338 62 314 61 289 c 0
61 60 l 0
Z
301 60 m 0
331 60 l 0
331 0 l 0
208 0 l 0
208 59 l 0
238 60 l 0
238 240 l 0
238 266 238 293 244 319 c 0
251 345 263 369 282 388 c 0
300 407 325 420 351 425 c 0
377 430 405 427 430 418 c 0
469 403 502 372 520 334 c 0
538 295 541 252 541 210 c 0
541 60 l 0
571 60 l 0
571 0 l 0
448 0 l 0
448 59 l 0
478 60 l 0
478 210 l 0
477 239 477 270 467 298 c 0
462 312 455 325 445 336 c 0
435 347 423 356 409 361 c 0
393 365 376 365 361 360 c 0
346 355 332 344 323 332 c 0
313 319 307 303 304 288 c 0
301 272 300 256 301 240 c 0
301 60 l 0
Z
Spiro
-1 360 v
-31 360 v
-31 420 v
91 420 v
91 360 v
61 360 v
61 60 v
91 60 v
91 0 v
-31 0 v
-31 59 v
-1 60 v
61 60 v
91 60 v
91 0 v
-31 0 v
-31 59 v
-1 60 v
-1 290 v
190 418 c
301 210 [
301 60 v
331 60 v
331 0 v
208 0 v
208 59 v
238 60 v
238 210 ]
169 361 c
61 289 v
301 60 v
331 60 v
331 0 v
208 0 v
208 59 v
238 60 v
238 240 ]
430 418 c
541 210 [
541 60 v
571 60 v
571 0 v
448 0 v
448 59 v
478 60 v
478 210 ]
409 361 c
301 240 [
0 0 z
EndSpiro
EndSplineSet
        EndChar
StartChar: n
Encoding: 110 110 0
Width: 403
InSpiro: 1
        Flags: H
        LayerCount: 2
        Back
        SplineSet
30 430 m 0
0 430 l 0
0 434 l 0
64 434 l 0
64 430 l 0
34 430 l 0
34 34 l 0
64 34 l 0
64 30 l 0
0 30 l 0
0 34 l 0
30 34 l 0
30 430 l 0
Z
34 34 m 0
64 34 l 0
64 30 l 0
0 30 l 0
0 34 l 0
30 34 l 0
30 334 l 0
30 334 l 0
31 369 51 402 80 422 c 0
110 441 149 445 182 433 c 0
200 426 216 414 229 399 c 0
243 384 252 367 259 348 c 0
273 311 273 271 274 232 c 0
274 34 l 0
304 34 l 0
304 30 l 0
239 30 l 0
239 34 l 0
269 34 l 0
269 232 l 0
269 270 268 309 255 346 c 0
249 364 239 381 227 396 c 0
214 411 198 422 181 430 c 0
148 442 109 438 81 418 c 0
52 399 34 364 34 330 c 0
34 34 l 0
Z
Spiro
30 430 v
0 430 v
0 434 v
64 434 v
64 430 v
34 430 v
34 34 v
64 34 v
64 30 v
0 30 v
0 34 v
30 34 v
34 34 v
64 34 v
64 30 v
0 30 v
0 34 v
30 34 v
30 334 v
30 334 v
182 433 c
274 232 [
274 34 v
304 34 v
304 30 v
239 30 v
239 34 v
269 34 v
269 232 ]
181 430 c
34 330 v
0 0 z
EndSpiro
EndSplineSet
        Fore
        SplineSet
-1 400 m 0
-31 400 l 0
-31 460 l 0
91 460 l 0
91 400 l 0
61 400 l 0
61 60 l 0
91 60 l 0
91 0 l 0
-31 0 l 0
-31 59 l 0
-1 60 l 0
-1 400 l 0
Z
61 60 m 0
91 60 l 0
91 0 l 0
-31 0 l 0
-31 59 l 0
-1 60 l 0
-1 360 l 0
-1 360 l 0
9 398 37 432 73 451 c 0
109 469 153 471 191 457 c 0
233 440 265 404 282 362 c 0
299 321 301 275 301 230 c 0
301 60 l 0
331 60 l 0
331 0 l 0
208 0 l 0
208 59 l 0
238 60 l 0
238 230 l 0
238 262 238 296 228 328 c 0
224 344 216 359 206 372 c 0
196 385 183 396 168 402 c 0
154 407 140 408 126 406 c 0
112 404 99 398 88 388 c 0
77 379 69 367 64 354 c 0
59 341 58 326 61 313 c 0
61 60 l 0
Z
Spiro
-1 400 v
-31 400 v
-31 460 v
91 460 v
91 400 v
61 400 v
61 60 v
91 60 v
91 0 v
-31 0 v
-31 59 v
-1 60 v
61 60 v
91 60 v
91 0 v
-31 0 v
-31 59 v
-1 60 v
-1 360 v
-1 360 v
191 457 c
301 230 [
301 60 v
331 60 v
331 0 v
208 0 v
208 59 v
238 60 v
238 230 ]
168 402 c
61 313 v
0 0 z
EndSpiro
EndSplineSet
        EndChar
StartChar: o
Encoding: 111 111 0
Width: 463
InSpiro: 1
        Flags: H
        LayerCount: 2
        Back
        SplineSet
181 430 m 0
158 429 135 422 116 410 c 0
96 398 80 382 67 362 c 0
42 324 34 277 34 232 c 0
34 186 42 139 67 101 c 0
80 81 96 65 116 53 c 0
135 41 158 34 181 34 c 0
203 33 226 40 246 52 c 0
265 64 282 81 294 100 c 0
319 139 328 186 329 232 c 0
329 277 319 324 294 363 c 0
282 382 265 399 246 411 c 0
226 423 203 430 181 430 c 0
Z
334 231 m 0
333 184 324 136 298 97 c 0
285 78 268 61 248 49 c 0
228 37 205 30 182 30 c 0
158 29 135 37 115 49 c 0
95 61 78 78 65 97 c 0
39 136 30 184 30 231 c 0
29 278 39 326 65 365 c 0
77 385 94 402 115 414 c 0
135 426 158 433 182 434 c 0
205 433 228 426 248 414 c 0
269 402 286 385 298 365 c 0
324 326 334 278 334 231 c 0
Z
Spiro
181 430 c
34 232 c
181 34 c
329 232 c
334 231 c
182 30 c
30 231 c
182 434 c
0 0 z
EndSpiro
EndSplineSet
        Fore
        SplineSet
179 400 m 0
159 399 140 393 124 382 c 0
108 372 95 357 86 341 c 0
66 307 61 268 61 230 c 0
61 191 66 152 86 119 c 0
95 102 108 87 124 77 c 0
140 66 159 60 179 60 c 0
198 59 217 66 233 76 c 0
249 87 262 102 272 118 c 0
292 151 297 191 298 230 c 0
298 268 292 308 272 341 c 0
262 357 249 372 233 383 c 0
217 393 198 400 179 400 c 0
Z
361 229 m 0
360 174 347 119 316 75 c 0
300 53 280 34 257 21 c 0
233 7 207 0 180 0 c 0
152 0 126 7 102 21 c 0
79 34 59 53 43 75 c 0
12 119 0 174 -1 229 c 0
-1 283 11 339 42 383 c 0
58 405 78 425 102 438 c 0
125 452 152 459 180 460 c 0
207 459 234 452 257 438 c 0
281 425 301 405 317 383 c 0
348 339 361 283 361 229 c 0
Z
Spiro
179 400 c
61 230 c
179 60 c
298 230 c
361 229 c
180 0 c
-1 229 c
180 460 c
0 0 z
EndSpiro
EndSplineSet
        EndChar
StartChar: p
Encoding: 112 112 0
Width: 463
InSpiro: 1
        Flags: H
        LayerCount: 2
        Back
        SplineSet
30 430 m 0
0 430 l 0
0 434 l 0
64 434 l 0
64 430 l 0
34 430 l 0
34 -266 l 0
64 -266 l 0
64 -270 l 0
0 -270 l 0
0 -266 l 0
30 -266 l 0
30 430 l 0
Z
34 334 m 0
64 334 l 0
64 330 l 0
0 330 l 0
0 334 l 0
30 334 l 0
39 365 60 392 88 410 c 0
115 428 149 436 182 433 c 0
227 427 269 399 295 362 c 0
321 324 333 277 334 232 c 0
334 185 322 138 296 101 c 0
269 63 227 35 182 30 c 0
149 26 115 34 87 52 c 0
60 70 39 98 30 130 c 0
0 130 l 0
0 134 l 0
64 134 l 0
64 130 l 0
34 130 l 0
43 99 63 72 89 54 c 0
116 37 149 29 181 33 c 0
226 38 266 65 292 103 c 0
317 140 329 186 329 232 c 0
328 277 317 322 292 360 c 0
266 397 225 424 181 430 c 0
149 433 116 425 90 408 c 0
63 391 43 364 34 334 c 0
Z
Spiro
30 430 v
0 430 v
0 434 v
64 434 v
64 430 v
34 430 v
34 -266 v
64 -266 v
64 -270 v
0 -270 v
0 -266 v
30 -266 v
34 334 v
64 334 v
64 330 v
0 330 v
0 334 v
30 334 v
182 433 c
334 232 c
182 30 c
30 130 v
0 130 v
0 134 v
64 134 v
64 130 v
34 130 v
181 33 c
329 232 c
181 430 c
0 0 z
EndSpiro
EndSplineSet
        Fore
        SplineSet
-1 400 m 0
-31 400 l 0
-31 460 l 0
91 460 l 0
91 400 l 0
61 400 l 0
61 -240 l 0
91 -240 l 0
91 -300 l 0
-31 -300 l 0
-31 -240 l 0
-1 -240 l 0
-1 400 l 0
Z
61 360 m 0
91 360 l 0
91 300 l 0
-31 300 l 0
-31 360 l 0
-1 360 l 0
15 393 42 421 74 439 c 0
107 456 146 463 183 459 c 0
235 451 283 421 314 378 c 0
345 336 360 282 361 230 c 0
361 177 346 123 314 80 c 0
283 38 235 6 183 0 c 0
146 -4 107 2 74 20 c 0
41 37 15 66 -1 100 c 0
-31 100 l 0
-31 160 l 0
91 160 l 0
91 100 l 0
61 100 l 0
74 83 93 71 113 64 c 0
133 57 155 55 176 59 c 0
213 65 246 89 267 121 c 0
288 153 298 191 298 230 c 0
297 267 288 306 267 337 c 0
246 369 213 393 176 400 c 0
155 403 133 402 113 395 c 0
93 388 75 375 61 360 c 0
Z
Spiro
-1 400 v
-31 400 v
-31 460 v
91 460 v
91 400 v
61 400 v
61 -240 v
91 -240 v
91 -300 v
-31 -300 v
-31 -240 v
-1 -240 v
61 360 v
91 360 v
91 300 v
-31 300 v
-31 360 v
-1 360 v
183 459 c
361 230 c
183 0 c
-1 100 v
-31 100 v
-31 160 v
91 160 v
91 100 v
61 100 v
176 59 c
298 230 c
176 400 c
0 0 z
EndSpiro
EndSplineSet
        EndChar
StartChar: r
Encoding: 114 114 0
Width: 403
InSpiro: 1
        Flags: H
        LayerCount: 2
        Back
        SplineSet
34 34 m 0
64 34 l 0
64 30 l 0
0 30 l 0
0 34 l 0
30 34 l 0
30 430 l 0
0 430 l 0
0 434 l 0
64 434 l 0
64 430 l 0
34 430 l 0
34 34 l 0
Z
34 384 m 0
64 384 l 0
64 380 l 0
0 380 l 0
0 384 l 0
30 384 l 0
46 406 71 424 98 432 c 0
125 441 154 441 182 433 c 0
204 425 224 412 241 395 c 0
257 378 268 356 274 334 c 0
304 334 l 0
304 330 l 0
239 330 l 0
239 334 l 0
269 334 l 0
263 356 252 376 237 393 c 0
222 410 202 422 181 430 c 0
154 438 126 438 100 430 c 0
74 422 50 405 34 384 c 0
Z
Spiro
34 34 v
64 34 v
64 30 v
0 30 v
0 34 v
30 34 v
30 430 v
0 430 v
0 434 v
64 434 v
64 430 v
34 430 v
34 384 v
64 384 v
64 380 v
0 380 v
0 384 v
30 384 v
182 433 c
274 334 v
304 334 v
304 330 v
239 330 v
239 334 v
269 334 v
181 430 c
0 0 z
EndSpiro
EndSplineSet
        Fore
        SplineSet
61 60 m 0
91 60 l 0
91 0 l 0
-31 0 l 0
-31 59 l 0
-1 60 l 0
-1 400 l 0
-31 400 l 0
-31 460 l 0
91 460 l 0
91 400 l 0
61 400 l 0
61 60 l 0
Z
61 410 m 0
91 410 l 0
91 350 l 0
-31 350 l 0
-31 410 l 0
-1 410 l 0
22 434 53 452 87 461 c 0
120 469 156 468 189 458 c 0
237 442 279 406 301 360 c 0
331 360 l 0
331 300 l 0
208 300 l 0
208 360 l 0
238 360 l 0
218 377 195 391 170 401 c 0
135 413 97 416 61 410 c 0
Z
Spiro
61 60 v
91 60 v
91 0 v
-31 0 v
-31 59 v
-1 60 v
-1 400 v
-31 400 v
-31 460 v
91 460 v
91 400 v
61 400 v
61 410 v
91 410 v
91 350 v
-31 350 v
-31 410 v
-1 410 v
189 458 c
301 360 v
331 360 v
331 300 v
208 300 v
208 360 v
238 360 v
170 401 c
0 0 z
EndSpiro
EndSplineSet
        EndChar
StartChar: s
Encoding: 115 115 0
Width: 463
InSpiro: 1
        Flags: H
        LayerCount: 2
        Back
        SplineSet
334 296 m 0
364 296 l 0
364 292 l 0
299 292 l 0
299 296 l 0
329 296 l 0
307 327 277 352 243 369 c 0
208 385 169 392 132 390 c 0
107 388 82 381 62 366 c 0
53 358 44 349 39 338 c 0
34 326 32 314 34 302 c 0
36 286 44 273 55 262 c 0
66 252 80 244 94 238 c 0
122 226 152 220 182 213 c 0
212 205 243 199 271 186 c 0
286 180 300 172 311 162 c 0
322 151 331 137 334 122 c 0
336 109 333 95 328 84 c 0
323 72 314 62 304 54 c 0
283 38 257 31 232 30 c 0
192 27 153 34 117 51 c 0
82 69 51 95 30 128 c 0
0 128 l 0
0 132 l 0
64 132 l 0
64 128 l 0
34 128 l 0
55 96 85 70 119 53 c 0
154 37 192 30 231 33 c 0
255 34 280 41 300 56 c 0
309 64 318 73 323 84 c 0
328 96 330 108 329 121 c 0
326 136 318 149 307 160 c 0
296 170 282 178 268 184 c 0
240 196 210 202 181 210 c 0
150 217 120 223 91 236 c 0
77 242 63 250 52 260 c 0
41 271 32 285 30 301 c 0
27 313 30 326 35 338 c 0
40 350 49 360 59 368 c 0
79 384 105 390 131 393 c 0
170 396 210 388 245 371 c 0
281 354 311 328 334 296 c 0
Z
Spiro
334 296 v
364 296 v
364 292 v
299 292 v
299 296 v
329 296 v
132 390 c
34 302 c
182 213 a
282 188 h
334 122 c
232 30 c
30 128 v
0 128 v
0 132 v
64 132 v
64 128 v
34 128 v
231 33 c
329 121 c
181 210 a
81 235 h
30 301 c
131 393 c
0 0 z
EndSpiro
EndSplineSet
        Fore
        SplineSet
298 350 m 0
299 380 l 0
360 380 l 0
360 260 l 0
299 260 l 0
298 290 l 0
257 336 194 362 133 360 c 0
115 359 98 356 84 346 c 0
76 342 70 336 66 328 c 0
62 321 60 312 61 304 c 0
61 297 63 291 67 286 c 0
70 281 75 276 79 272 c 0
89 264 101 260 113 256 c 0
137 249 162 245 187 239 c 0
222 230 258 221 291 204 c 0
308 196 323 185 335 172 c 0
348 158 357 142 361 124 c 0
363 107 361 90 355 74 c 0
349 59 338 45 325 34 c 0
300 12 266 1 233 0 c 0
169 -3 104 22 61 70 c 0
60 40 l 0
0 40 l 0
0 160 l 0
60 160 l 0
61 130 l 0
101 83 164 56 226 59 c 0
243 59 260 62 274 72 c 0
282 76 288 82 292 90 c 0
296 97 298 106 298 115 c 0
297 121 295 127 291 132 c 0
288 137 283 142 279 146 c 0
269 154 257 158 245 162 c 0
221 169 196 173 172 180 c 0
136 188 100 197 67 214 c 0
51 222 36 233 23 246 c 0
11 260 2 276 -1 295 c 0
-3 311 -1 328 4 344 c 0
10 359 21 373 33 384 c 0
58 406 92 416 126 419 c 0
189 423 254 396 298 350 c 0
Z
Spiro
298 350 v
299 380 v
360 380 v
360 260 v
299 260 v
298 290 v
133 360 c
61 304 c
187 239 a
287 214 h
361 124 c
233 0 c
61 70 v
60 40 v
0 40 v
0 160 v
60 160 v
61 130 v
226 59 c
298 115 c
172 180 a
72 205 h
-1 295 c
126 419 c
0 0 z
EndSpiro
EndSplineSet
        EndChar
StartChar: t
Encoding: 116 116 0
Width: 313
InSpiro: 1
        Flags: H
        LayerCount: 2
        Back
        SplineSet
30 630 m 0
0 630 l 0
0 634 l 0
64 634 l 0
64 630 l 0
34 630 l 0
34 232 l 0
33 208 34 185 38 162 c 0
41 139 49 117 62 97 c 0
74 78 91 61 112 50 c 0
132 39 155 33 179 34 c 0
179 64 l 0
184 64 l 0
184 0 l 0
179 0 l 0
179 30 l 0
155 29 131 34 110 46 c 0
89 57 71 74 58 94 c 0
46 114 38 137 34 160 c 0
30 184 29 208 30 232 c 0
30 630 l 0
Z
34 430 m 0
34 400 l 0
30 400 l 0
30 464 l 0
34 464 l 0
34 434 l 0
179 434 l 0
179 464 l 0
184 464 l 0
184 400 l 0
179 400 l 0
179 430 l 0
34 430 l 0
Z
Spiro
30 630 v
0 630 v
0 634 v
64 634 v
64 630 v
34 630 v
34 232 ]
179 34 v
179 64 v
184 64 v
184 0 v
179 0 v
179 30 v
30 232 [
34 430 v
34 400 v
30 400 v
30 464 v
34 464 v
34 434 v
179 434 v
179 464 v
184 464 v
184 400 v
179 400 v
179 430 v
0 0 z
EndSpiro
EndSplineSet
        Fore
        SplineSet
-1 600 m 0
-31 600 l 0
-31 660 l 0
91 660 l 0
91 600 l 0
61 600 l 0
61 230 l 0
61 195 62 160 76 129 c 0
90 98 116 72 148 60 c 0
149 90 l 0
210 90 l 0
210 -29 l 0
149 -29 l 0
148 0 l 0
122 3 98 12 77 26 c 0
56 40 39 60 26 82 c 0
14 104 6 129 3 154 c 0
0 179 -1 204 -1 230 c 0
-1 600 l 0
Z
61 400 m 0
60 370 l 0
0 370 l 0
0 490 l 0
60 490 l 0
61 460 l 0
148 460 l 0
149 490 l 0
210 490 l 0
210 370 l 0
149 370 l 0
148 400 l 0
61 400 l 0
Z
Spiro
-1 600 v
-31 600 v
-31 660 v
91 660 v
91 600 v
61 600 v
61 230 ]
148 60 v
149 90 v
210 90 v
210 -29 v
149 -29 v
148 0 v
-1 230 [
61 400 v
60 370 v
0 370 v
0 490 v
60 490 v
61 460 v
148 460 v
149 490 v
210 490 v
210 370 v
149 370 v
148 400 v
0 0 z
EndSpiro
EndSplineSet
        EndChar
StartChar: u
Encoding: 117 117 0
Width: 403
InSpiro: 1
        Flags: H
        LayerCount: 2
        Back
        SplineSet
274 34 m 0
304 34 l 0
304 30 l 0
239 30 l 0
239 34 l 0
269 34 l 0
269 430 l 0
239 430 l 0
239 434 l 0
304 434 l 0
304 430 l 0
274 430 l 0
274 34 l 0
Z
269 130 m 0
239 130 l 0
239 134 l 0
304 134 l 0
304 130 l 0
274 130 l 0
272 105 261 82 245 64 c 0
228 46 206 33 182 30 c 0
157 26 132 30 111 41 c 0
89 52 71 70 58 90 c 0
45 111 37 135 34 159 c 0
30 183 29 207 30 232 c 0
30 430 l 0
0 430 l 0
0 434 l 0
64 434 l 0
64 430 l 0
34 430 l 0
34 232 l 0
33 208 34 184 37 160 c 0
41 137 48 114 61 93 c 0
73 73 90 56 111 44 c 0
132 33 157 29 181 33 c 0
204 36 226 48 242 66 c 0
257 83 267 106 269 130 c 0
Z
Spiro
274 34 v
304 34 v
304 30 v
239 30 v
239 34 v
269 34 v
269 430 v
239 430 v
239 434 v
304 434 v
304 430 v
274 430 v
269 130 v
239 130 v
239 134 v
304 134 v
304 130 v
274 130 v
182 30 c
30 232 [
30 430 v
0 430 v
0 434 v
64 434 v
64 430 v
34 430 v
34 232 ]
181 33 c
0 0 z
EndSpiro
EndSplineSet
        Fore
        SplineSet
301 60 m 0
331 60 l 0
331 0 l 0
208 0 l 0
208 59 l 0
238 60 l 0
238 400 l 0
208 400 l 0
208 460 l 0
331 460 l 0
331 400 l 0
301 400 l 0
301 60 l 0
Z
238 100 m 0
208 100 l 0
208 160 l 0
331 160 l 0
331 100 l 0
301 100 l 0
292 74 277 51 257 33 c 0
236 16 211 4 185 0 c 0
156 -4 127 0 101 10 c 0
74 22 52 41 35 65 c 0
19 88 9 116 4 144 c 0
0 172 -1 201 -1 230 c 0
-1 400 l 0
-31 400 l 0
-31 460 l 0
91 460 l 0
91 400 l 0
61 400 l 0
61 230 l 0
61 210 61 191 63 171 c 0
66 152 71 133 80 116 c 0
89 99 102 83 118 73 c 0
134 62 154 57 174 59 c 0
200 61 225 77 238 100 c 0
Z
Spiro
301 60 v
331 60 v
331 0 v
208 0 v
208 59 v
238 60 v
238 400 v
208 400 v
208 460 v
331 460 v
331 400 v
301 400 v
238 100 v
208 100 v
208 160 v
331 160 v
331 100 v
301 100 v
185 0 c
-1 230 [
-1 400 v
-31 400 v
-31 460 v
91 460 v
91 400 v
61 400 v
61 230 ]
174 59 c
0 0 z
EndSpiro
EndSplineSet
        EndChar
StartChar: v
Encoding: 118 118 0
Width: 463
InSpiro: 1
        Flags: H
        LayerCount: 2
        Back
        SplineSet
30 430 m 0
0 430 l 0
0 434 l 0
64 434 l 0
64 430 l 0
34 430 l 0
182 37 l 0
329 430 l 0
299 430 l 0
299 434 l 0
364 434 l 0
364 430 l 0
334 430 l 0
184 30 l 0
179 30 l 0
30 430 l 0
Z
Spiro
30 430 v
0 430 v
0 434 v
64 434 v
64 430 v
34 430 v
182 37 v
329 430 v
299 430 v
299 434 v
364 434 v
364 430 v
334 430 v
184 30 v
179 30 v
0 0 z
EndSpiro
EndSplineSet
        Fore
        SplineSet
-1 400 m 0
-31 400 l 0
-31 460 l 0
91 460 l 0
91 400 l 0
61 400 l 0
180 115 l 0
298 400 l 0
268 400 l 0
268 460 l 0
391 460 l 0
391 400 l 0
361 400 l 0
211 0 l 0
148 0 l 0
-1 400 l 0
Z
Spiro
-1 400 v
-31 400 v
-31 460 v
91 460 v
91 400 v
61 400 v
180 115 v
298 400 v
268 400 v
268 460 v
391 460 v
391 400 v
361 400 v
211 0 v
148 0 v
0 0 z
EndSpiro
EndSplineSet
        EndChar
StartChar: w
Encoding: 119 119 0
Width: 643
InSpiro: 1
        Flags: H
        LayerCount: 2
        Back
        SplineSet
30 430 m 0
0 430 l 0
0 434 l 0
64 434 l 0
64 430 l 0
34 430 l 0
152 38 l 0
269 434 l 0
274 434 l 0
392 38 l 0
509 430 l 0
479 430 l 0
479 434 l 0
544 434 l 0
544 430 l 0
514 430 l 0
394 30 l 0
389 30 l 0
272 425 l 0
154 30 l 0
149 30 l 0
30 430 l 0
Z
Spiro
30 430 v
0 430 v
0 434 v
64 434 v
64 430 v
34 430 v
152 38 v
269 434 v
274 434 v
392 38 v
509 430 v
479 430 v
479 434 v
544 434 v
544 430 v
514 430 v
394 30 v
389 30 v
272 425 v
154 30 v
149 30 v
0 0 z
EndSpiro
EndSplineSet
        Fore
        SplineSet
-1 400 m 0
-31 400 l 0
-31 460 l 0
91 460 l 0
91 400 l 0
61 400 l 0
150 134 l 0
238 460 l 0
301 460 l 0
390 134 l 0
478 400 l 0
448 400 l 0
448 460 l 0
571 460 l 0
571 400 l 0
541 400 l 0
421 0 l 0
358 0 l 0
270 325 l 0
181 0 l 0
118 0 l 0
-1 400 l 0
Z
Spiro
-1 400 v
-31 400 v
-31 460 v
91 460 v
91 400 v
61 400 v
150 134 v
238 460 v
301 460 v
390 134 v
478 400 v
448 400 v
448 460 v
571 460 v
571 400 v
541 400 v
421 0 v
358 0 v
270 325 v
181 0 v
118 0 v
0 0 z
EndSpiro
EndSplineSet
        EndChar
StartChar: x
Encoding: 120 120 0
Width: 463
InSpiro: 1
        Flags: H
        LayerCount: 2
        Back
        SplineSet
30 430 m 0
0 430 l 0
0 434 l 0
64 434 l 0
64 430 l 0
34 430 l 0
334 34 l 0
364 34 l 0
364 30 l 0
299 30 l 0
299 34 l 0
329 34 l 0
30 430 l 0
Z
329 430 m 0
299 430 l 0
299 434 l 0
364 434 l 0
364 430 l 0
334 430 l 0
34 34 l 0
64 34 l 0
64 30 l 0
0 30 l 0
0 34 l 0
30 34 l 0
329 430 l 0
Z
Spiro
30 430 v
0 430 v
0 434 v
64 434 v
64 430 v
34 430 v
334 34 v
364 34 v
364 30 v
299 30 v
299 34 v
329 34 v
329 430 v
299 430 v
299 434 v
364 434 v
364 430 v
334 430 v
34 34 v
64 34 v
64 30 v
0 30 v
0 34 v
30 34 v
0 0 z
EndSpiro
EndSplineSet
        Fore
        SplineSet
-1 400 m 0
-31 400 l 0
-31 460 l 0
91 460 l 0
91 400 l 0
61 400 l 0
361 60 l 0
391 60 l 0
391 0 l 0
268 0 l 0
268 59 l 0
298 60 l 0
-1 400 l 0
Z
298 400 m 0
268 400 l 0
268 460 l 0
391 460 l 0
391 400 l 0
361 400 l 0
61 60 l 0
91 60 l 0
91 0 l 0
-31 0 l 0
-31 59 l 0
-1 60 l 0
298 400 l 0
Z
Spiro
-1 400 v
-31 400 v
-31 460 v
91 460 v
91 400 v
61 400 v
361 60 v
391 60 v
391 0 v
268 0 v
268 59 v
298 60 v
298 400 v
268 400 v
268 460 v
391 460 v
391 400 v
361 400 v
61 60 v
91 60 v
91 0 v
-31 0 v
-31 59 v
-1 60 v
0 0 z
EndSpiro
EndSplineSet
        EndChar
StartChar: y
Encoding: 121 121 0
Width: 463
InSpiro: 1
        Flags: H
        LayerCount: 2
        Back
        SplineSet
329 390 m 0
299 390 l 0
299 394 l 0
364 394 l 0
364 390 l 0
334 390 l 0
334 32 l 0
333 -29 333 -92 311 -149 c 0
300 -178 284 -205 262 -227 c 0
240 -248 212 -263 182 -269 c 0
149 -274 114 -267 86 -249 c 0
58 -230 38 -202 30 -170 c 0
0 -170 l 0
0 -166 l 0
64 -166 l 0
64 -170 l 0
34 -170 l 0
41 -201 61 -229 88 -246 c 0
115 -264 149 -271 181 -266 c 0
210 -261 238 -245 259 -224 c 0
281 -203 297 -176 307 -148 c 0
328 -91 328 -29 329 31 c 0
329 390 l 0
Z
30 390 m 0
0 390 l 0
0 394 l 0
64 394 l 0
64 390 l 0
34 390 l 0
34 212 l 0
34 189 34 167 38 146 c 0
43 124 52 103 65 86 c 0
79 69 97 55 117 46 c 0
137 37 159 33 182 34 c 0
203 34 225 38 246 47 c 0
266 55 283 69 297 87 c 0
310 104 319 125 324 146 c 0
328 167 329 190 329 212 c 0
329 390 l 0
299 390 l 0
299 394 l 0
364 394 l 0
364 390 l 0
334 390 l 0
334 212 l 0
334 189 333 166 328 144 c 0
324 122 315 101 301 83 c 0
287 65 268 51 247 42 c 0
227 34 204 29 182 30 c 0
159 30 136 34 116 42 c 0
95 51 76 65 62 83 c 0
48 101 39 122 35 144 c 0
30 166 29 189 30 212 c 0
30 390 l 0
Z
Spiro
329 390 v
299 390 v
299 394 v
364 394 v
364 390 v
334 390 v
334 32 ]
182 -269 c
30 -170 v
0 -170 v
0 -166 v
64 -166 v
64 -170 v
34 -170 v
181 -266 c
329 31 [
30 390 v
0 390 v
0 394 v
64 394 v
64 390 v
34 390 v
34 212 ]
182 34 c
329 212 [
329 390 v
299 390 v
299 394 v
364 394 v
364 390 v
334 390 v
334 212 ]
182 30 c
30 212 [
0 0 z
EndSpiro
EndSplineSet
        Fore
        SplineSet
298 360 m 0
268 360 l 0
268 420 l 0
391 420 l 0
391 360 l 0
361 360 l 0
361 30 l 0
360 -37 359 -107 332 -170 c 0
319 -201 300 -230 274 -253 c 0
249 -276 218 -292 185 -299 c 0
147 -305 108 -299 74 -282 c 0
41 -264 14 -234 -1 -200 c 0
-31 -200 l 0
-31 -140 l 0
91 -140 l 0
91 -200 l 0
61 -200 l 0
74 -216 91 -229 111 -236 c 0
131 -243 153 -244 174 -240 c 0
200 -234 223 -219 241 -199 c 0
260 -179 272 -155 281 -130 c 0
298 -79 297 -24 298 29 c 0
298 360 l 0
Z
-1 360 m 0
-31 360 l 0
-31 420 l 0
91 420 l 0
91 360 l 0
61 360 l 0
61 210 l 0
61 191 61 173 64 156 c 0
68 138 74 121 85 106 c 0
96 91 110 79 126 71 c 0
142 63 160 60 179 60 c 0
197 59 215 63 231 71 c 0
248 79 262 91 273 105 c 0
283 120 290 137 294 155 c 0
297 173 298 191 298 210 c 0
298 360 l 0
268 360 l 0
268 420 l 0
391 420 l 0
391 360 l 0
361 360 l 0
361 210 l 0
361 183 360 156 354 131 c 0
349 105 337 80 320 60 c 0
304 39 281 24 257 14 c 0
233 4 206 0 180 0 c 0
153 0 126 4 102 14 c 0
78 24 55 39 38 60 c 0
22 80 10 105 5 131 c 0
0 156 -1 183 -1 210 c 0
-1 360 l 0
Z
Spiro
298 360 v
268 360 v
268 420 v
391 420 v
391 360 v
361 360 v
361 30 ]
185 -299 c
-1 -200 v
-31 -200 v
-31 -140 v
91 -140 v
91 -200 v
61 -200 v
174 -240 c
298 29 [
-1 360 v
-31 360 v
-31 420 v
91 420 v
91 360 v
61 360 v
61 210 ]
179 60 c
298 210 [
298 360 v
268 360 v
268 420 v
391 420 v
391 360 v
361 360 v
361 210 ]
180 0 c
-1 210 [
0 0 z
EndSpiro
EndSplineSet
        EndChar
StartChar: z
Encoding: 122 122 0
Width: 463
InSpiro: 1
        Flags: H
        LayerCount: 2
        Back
        SplineSet
34 430 m 0
34 400 l 0
30 400 l 0
30 464 l 0
34 464 l 0
34 434 l 0
334 434 l 0
334 434 l 0
36 34 l 0
329 34 l 0
329 64 l 0
334 64 l 0
334 0 l 0
329 0 l 0
329 30 l 0
30 30 l 0
30 30 l 0
327 430 l 0
34 430 l 0
Z
Spiro
34 430 v
34 400 v
30 400 v
30 464 v
34 464 v
34 434 v
334 434 v
334 434 v
36 34 v
329 34 v
329 64 v
334 64 v
334 0 v
329 0 v
329 30 v
30 30 v
30 30 v
327 430 v
0 0 z
EndSpiro
EndSplineSet
        Fore
        SplineSet
61 400 m 0
60 370 l 0
0 370 l 0
0 490 l 0
60 490 l 0
61 460 l 0
361 460 l 0
361 460 l 0
91 60 l 0
298 60 l 0
299 90 l 0
360 90 l 0
360 -29 l 0
299 -29 l 0
298 0 l 0
-1 0 l 0
-1 0 l 0
268 400 l 0
61 400 l 0
Z
Spiro
61 400 v
60 370 v
0 370 v
0 490 v
60 490 v
61 460 v
361 460 v
361 460 v
91 60 v
298 60 v
299 90 v
360 90 v
360 -29 v
299 -29 v
298 0 v
-1 0 v
-1 0 v
268 400 v
0 0 z
EndSpiro
EndSplineSet
        EndChar
StartChar: £
Encoding: 163 163 0
Width: 463
InSpiro: 1
        Flags: H
        LayerCount: 2
        Back
        SplineSet
334 534 m 0
364 534 l 0
364 530 l 0
299 530 l 0
299 534 l 0
329 534 l 0
330 551 327 569 319 585 c 0
311 601 299 615 284 625 c 0
269 635 252 641 234 641 c 0
216 642 198 638 183 630 c 0
159 617 141 595 130 570 c 0
119 546 113 519 111 493 c 0
106 439 109 385 109 332 c 0
109 34 l 0
139 34 l 0
139 30 l 0
74 30 l 0
74 34 l 0
104 34 l 0
104 332 l 0
104 386 101 440 107 494 c 0
109 521 115 548 127 572 c 0
138 597 156 619 180 633 c 0
196 642 215 646 233 646 c 0
252 645 270 639 286 629 c 0
302 619 315 605 323 588 c 0
331 571 335 552 334 534 c 0
Z
34 30 m 0
34 0 l 0
30 0 l 0
30 64 l 0
34 64 l 0
34 34 l 0
329 34 l 0
329 64 l 0
334 64 l 0
334 0 l 0
329 0 l 0
329 30 l 0
34 30 l 0
Z
34 330 m 0
34 300 l 0
30 300 l 0
30 364 l 0
34 364 l 0
34 334 l 0
179 334 l 0
179 364 l 0
184 364 l 0
184 300 l 0
179 300 l 0
179 330 l 0
34 330 l 0
Z
Spiro
334 534 v
364 534 v
364 530 v
299 530 v
299 534 v
329 534 v
183 630 c
109 332 [
109 34 v
139 34 v
139 30 v
74 30 v
74 34 v
104 34 v
104 332 ]
180 633 c
34 30 v
34 0 v
30 0 v
30 64 v
34 64 v
34 34 v
329 34 v
329 64 v
334 64 v
334 0 v
329 0 v
329 30 v
34 330 v
34 300 v
30 300 v
30 364 v
34 364 v
34 334 v
179 334 v
179 364 v
184 364 v
184 300 v
179 300 v
179 330 v
0 0 z
EndSpiro
EndSplineSet
        Fore
        SplineSet
361 560 m 0
391 560 l 0
391 500 l 0
268 500 l 0
268 560 l 0
298 560 l 0
290 579 275 596 255 604 c 0
236 612 213 611 195 603 c 0
172 592 156 572 147 549 c 0
137 526 134 501 133 477 c 0
132 428 136 379 136 330 c 0
136 60 l 0
166 60 l 0
166 0 l 0
43 0 l 0
43 59 l 0
73 60 l 0
73 330 l 0
73 388 71 448 80 506 c 0
84 535 92 564 105 590 c 0
119 617 138 640 164 656 c 0
201 678 249 680 288 661 c 0
327 642 355 603 361 560 c 0
Z
61 0 m 0
60 -30 l 0
0 -29 l 0
0 90 l 0
60 90 l 0
61 60 l 0
298 60 l 0
299 90 l 0
360 90 l 0
360 -29 l 0
299 -29 l 0
298 0 l 0
61 0 l 0
Z
61 300 m 0
60 270 l 0
0 270 l 0
0 390 l 0
60 390 l 0
61 360 l 0
148 360 l 0
149 390 l 0
210 390 l 0
210 270 l 0
149 270 l 0
148 300 l 0
61 300 l 0
Z
Spiro
361 560 v
391 560 v
391 500 v
268 500 v
268 560 v
298 560 v
195 603 c
136 330 [
136 60 v
166 60 v
166 0 v
43 0 v
43 59 v
73 60 v
73 330 ]
164 656 c
61 0 v
60 -30 v
0 -29 v
0 90 v
60 90 v
61 60 v
298 60 v
299 90 v
360 90 v
360 -29 v
299 -29 v
298 0 v
61 300 v
60 270 v
0 270 v
0 390 v
60 390 v
61 360 v
148 360 v
149 390 v
210 390 v
210 270 v
149 270 v
148 300 v
0 0 z
EndSpiro
EndSplineSet
        EndChar
